<svg width="652" height="200" viewBox="0 0 652 200" fill="none" xmlns="http://www.w3.org/2000/svg">
<path d="M626.6 141.7C626.6 152.8 617.6 161.7 606.6 161.7H70.3001C59.2001 161.7 50.3 152.7 50.3 141.7V139.9C50.3 128.8 59.3001 119.9 70.3001 119.9H606.5C617.6 119.9 626.5 128.9 626.5 139.9L626.6 141.7Z" fill="#007549"/>
<path d="M51.7 70.8C51.2 70.6 48.4 69.5 45.5 69.9C42.6 70.3 40.6 71.3 39.1 72.4C37.6 73.5 36.9 74.9 36.8 75.9C36.7 76.9 36.9 78.2 38.2 78.6C39.5 79.1 39.9 79.2 40.5 79C41.1 78.9 42.4 78.2 44.5 77.5C46.6 76.9 48.9 76.2 52.1 76C55.1 75.9 57.5 76.2 59.8 77.3C62.1 78.4 63.3 79.2 63.6 79.8C64 80.4 64.2 81 63.4 81.4C62.9 81.6 62.6 81.6 62.1 81.4C59.9 80.7 57.3 80 54.4 80.4C51.2 80.8 49.8 81.8 49.2 82.5C48.6 83.2 48 84.5 48.6 85.6C49.2 86.7 49.9 87.1 51.1 87.3C52.3 87.4 54.3 87.4 56.5 86.8C58.7 86.2 61.5 85.5 63.5 85.2C65.4 85 66.3 85.1 67.2 85.2C68.2 85.4 69.1 85.6 69.7 86C70.3 86.4 70.5 86.4 70.5 86.4L70.1 88.3C70.1 88.3 69.5 88.2 68.2 88.2C66.5 88.2 64.9 89 64.1 90.1C63.3 91.2 62.9 92.2 63.3 93.2C63.7 94.2 64.5 94.5 65.4 94.6C66.3 94.7 67.3 94.6 67.3 94.6C67.3 94.6 71.1 93.3 71.8 93.1C72.5 92.9 73.7 93 74.2 93.1C74.7 93.2 77.1 94.5 79.3 96.7C81.5 98.8 82.2 100 83.3 102C84.3 103.9 85.9 108.4 85.4 110.6C85 112.5 84.1 113.7 82.7 114.3C81.8 114.7 80.1 114.4 78.2 113.6C76.3 112.8 71.9 110.1 69.1 108.4C66.4 106.7 57.4 100.3 52.8 96.6C48.2 92.9 44.5 89.7 40.1 85.1C35.7 80.5 33.4 77.4 31.7 74.5C30 71.6 29 68.4 30.2 66.3C31.4 64.2 33.1 63.8 34.5 63.8C35.9 63.8 38.9 64.2 43 65.9C47.1 67.6 49 68.5 49.5 68.5C49.9 68.4 50.1 68.1 50 67.9C49.8 67.7 49.1 66.8 47.1 65.6C45.1 64.4 38.6 60.8 35 60.5C31.4 60.3 29.4 61 28.7 61.5C28.1 62 26.5 63.8 26.8 67.3C27.1 70.8 27.6 73.3 29.6 76.7C31.6 80.1 32.5 81.3 36.4 85.5C40.3 89.7 44.2 93.9 51.8 100.5C59.4 107.1 64.9 110.1 69.9 113C74.9 115.8 79.7 117.3 82.2 117.2C84.8 117.1 86.8 116.6 87.6 114.6C88.4 112.6 88.3 111.3 87.4 107.6C86.5 103.8 84.3 100 82.4 97.6C80.5 95.1 79 94 77.5 92.9C76 91.8 73.8 91.2 73.3 91.1C72.7 91 69.3 92.8 69.3 92.8L69.2 91.6C69.2 91.6 67.5 92.7 66.3 92.8C65.1 93 64.4 91.8 65.1 90.6C65.9 89.2 67.4 89.3 68.1 89.3C68.8 89.3 69.9 89.9 69.9 89.9L71.3 84.5C71.3 84.5 69.4 83.2 66.8 83.1C62.7 82.9 58.2 84.9 56.1 85.5C52.3 86.5 51.9 85 51.9 84.3C52 82.3 54.5 81.2 56.2 81.4C58.3 81.6 62.3 82.6 63.5 82.6C64.6 82.6 66 82.6 66.4 81.5C66.8 80.4 66.2 79 64.8 77.7C63.3 76.4 60.7 74.5 58.5 74.1C52.7 73 48 74.3 43 76.1C40.6 76.9 39.9 76.3 40.1 75.2C40.3 74 41.5 72.9 43.9 72.1C46.9 71.1 47.9 71.2 49.1 71.2C50.3 71.2 51.8 71.6 51.9 71.6C52 71.6 52.1 71.4 52.1 71.1C51.9 71.1 51.7 70.8 51.7 70.8Z" fill="#E48F00"/>
<path d="M66.9 57.3999C66.9 57.3999 66.5 57.4999 66.3 57.3999C66.1 57.1999 65.7 56.7999 65.1 56.4999C64.6 56.1999 63.4 55.7 61.8 55.7C58.5 55.5 57.2 56.7 56.2 58.2C54.6 60.8 55.3 64.7999 56.4 67.5999C57.5 70.4999 58.4 70.9 58.4 72.2C58.4 72.6 58.6 72.9999 57.8 72.9999C57.3 72.9999 56.1 72.4999 54.4 70.3999C52.7 68.2999 51.9 67.5999 51.4 63.8999C50.9 60.0999 51.8 57.7999 53.5 55.4999C55.2 53.1999 57 52.6999 59.3 52.5999C61.6 52.4999 63.8 53.8999 64.9 54.9999C66.1 55.9999 66.9 57.3999 66.9 57.3999ZM69.9 42.5999C69.1 43.0999 68.3 44.1 67.8 46.2C67.2 48.3 67.2 47.9999 67 50.3999C66.8 52.7999 66.6 53.4999 66.8 54.5999C67 55.6999 67.3 56.6999 68 57.4999C68.6 58.2999 69.1 58.7999 70.2 58.5999C71.3 58.3999 71.7 58.2 72.6 57.2C73.5 56.2 75 54.5999 76.4 53.4999C77.9 52.3999 79.8 51.9 81.3 52.2C82.8 52.6 84.2 53.5999 85 54.5999C85.8 55.5999 86.7 57.6999 87 59.7999C87.2 61.8999 87.5 64.7999 87.1 67.2999C86.7 69.6999 86.7 70.4999 86.1 72.2999C85.5 74.0999 84.2 76.4999 84.2 76.4999C84.2 76.4999 88.2 72.5999 89.1 71.0999C90 69.5999 91 67.0999 91.3 63.5999C91.6 59.7999 91.1 58.4999 90.4 55.8999C89.6 53.1999 87.9 50.8999 85.9 49.3999C83.8 47.8999 80.9 47.7999 79.1 47.9999C77 48.2999 73.9 49.7999 72.1 51.5999C70.3 53.3999 70.1 53.7 70.1 53.7C69.9 53.5 69.3 52.9999 69.4 51.3999C69.6 48.8999 69.7 48.2999 70.3 46.5999C70.8 45.0999 71.4 43.7999 71.5 43.3999C71.6 42.9999 71.3 42.8 70.9 42.7C70.5 42.5 69.9 42.5999 69.9 42.5999Z" fill="#EB0029"/>
<path d="M66.9001 46.0999C66.9001 46.0999 64.5001 45.3999 63.2001 44.9999C61.9001 44.6999 61.3001 44.1999 60.5001 43.8999C59.8001 43.4999 59.5001 43.1999 59.1001 42.6999C58.7001 42.1999 58.5001 41.9999 58.5001 41.9999C58.5001 41.9999 58.2001 42.3999 58.2001 42.8999C58.1001 43.3999 58.3001 44.3999 59.0001 45.0999C59.8001 45.7999 60.2001 45.6999 60.8001 45.8999C61.4001 46.0999 62.4001 45.9999 63.1001 45.9999C63.5001 45.9999 64.1001 46.6999 64.3001 47.0999C64.5001 47.7999 64.6001 48.5999 64.4001 48.9999C64.0001 49.7999 63.6001 50.1999 62.0001 50.2999C60.3001 50.3999 59.5001 50.1999 57.9001 49.3999C56.3001 48.5999 55.8001 46.9999 55.5001 45.8999C55.3001 44.7999 55.4001 43.0999 56.5001 41.2999C57.6001 39.4999 58.2001 39.3999 58.6001 39.1999C59.0001 39.0999 59.7001 39.0999 60.1001 39.3999C60.5001 39.5999 60.7001 39.9999 61.4001 40.7999C62.2001 41.6999 63.4001 42.8999 64.7001 44.0999C66.0001 45.2999 66.9001 45.8999 66.9001 45.8999V46.0999Z" fill="#007549"/>
<path d="M109.2 76.9C108.1 76.7 107.5 76.4 107.5 76C107.4 75.6 107.9 74.7 108.4 74.5C109 74.3 109.4 74.4 109.6 74.8C109.9 75.2 110 75.4 110.3 75.9C110.6 76.4 110.8 76.6 110.6 76.9C110.3 77.2 110.1 77.1 109.8 77.1C109.5 77.1 109.2 76.9 109.2 76.9ZM82.1999 78.9C82.2999 78.7 81.4999 77.7 80.8999 77C80.2999 76.3 78.2999 74 77.7999 72.9C77.2999 71.8 76.5999 67.8 76.2999 66.3C75.9999 64.8 75.3999 63.2 74.7999 63.1C74.0999 62.9 73.2999 63.2 72.9999 64.1C72.6999 65 71.8999 69.2 71.6999 73.1C71.3999 76.9 71.0999 81 70.7999 83.1C70.4999 85.2 70.0999 87.3 69.4999 89.5C68.8999 91.6 67.9999 93.5 66.9999 94.9C65.9999 96.4 64.8999 97.2 64.7999 98.3C64.6999 99.4 64.8999 100 65.3999 100C65.8999 100 66.3999 99.6 67.5999 98.4C68.7999 97.1 71.5999 93.9 72.6999 92.5C73.6999 91.2 76.0999 88.7 77.4999 87.3C78.8999 86 79.4999 85.6 79.4999 85.6C79.4999 85.6 79.8999 87.1 81.0999 89.3C82.1999 91.4 85.6999 96.8 89.9999 99.1C94.2999 101.4 97.3999 101.4 98.9999 101.3C100.7 101.2 104.8 100.5 108 97.9C111.3 95.3 113.3 93 115.1 90.6C116.9 88.2 119.7 84.1 120.9 82.2C122.1 80.3 122.7 79.6 122.7 79.6V79C122.7 79 122.4 78.4 121.5 76.5C120.5 74.6 120 73.4 118.4 71.4C116.8 69.3 114.6 66.8 112.4 65.5C110.3 64.2 107 62.7 103.4 63.1C99.7999 63.5 97.4999 64.3 94.6999 65.9C91.8999 67.5 88.3999 70.6 87.6999 71.2C87.0999 71.8 86.6999 72.5 85.5999 74.1C84.6999 75.4 83.8999 77 83.6999 77.4C83.4999 77.8 83.5999 78 83.5999 78H83.9999C83.9999 78 85.4999 76.3 87.3999 74.6C89.2999 72.9 90.2999 72.2 92.6999 70.7C93.6999 70.1 95.2999 69.1 97.7999 68.2C101.5 67 103.9 67 106.9 67.6C110.3 68.3 114.5 71 117.7 75.6C120.1 79 120.4 79.9 120.4 79.9C120.4 79.9 118.9 81.4 116.9 83.5C114.6 85.9 111.5 89.2 108.8 91.6C107 93.2 103.5 96 98.4999 96.5C95.9999 96.8 93.4999 96.5 90.3999 95.5C87.9999 94.7 85.5999 92.8 84.5999 91.9C83.0999 90.5 81.6999 88.3 81.3999 87.3C80.4999 84.3 79.5999 84.3 79.5999 84.3C79.5999 84.3 77.5999 84.5 74.5999 87.4C72.0999 89.8 69.7999 91.8 69.7999 91.8C69.7999 91.8 70.9999 89.3 72.1999 85.2C73.3999 81.1 73.4999 80 73.8999 77.7C74.2999 75.4 74.7999 73.2 74.7999 73.2L76.0999 75.2C76.0999 75.2 77.5999 77.1 78.5999 77.9C79.5999 78.7 80.6999 79.2 81.1999 79.4C81.6999 79.1 82.0999 79.1 82.1999 78.9Z" fill="#5B87DA"/>
<path d="M128.4 132.8C127.7 132.9 127.6 133 127.5 133.6V134.3L127.1 145.4C127.1 145.5 127.1 145.8 127.1 146.2C127.1 146.3 127.1 146.4 127.1 146.5C127.1 147.3 126.9 147.9 126.6 148.2C126.4 148.4 126.1 148.5 125.7 148.7C125.2 148.9 124.6 149.1 124.2 149.1C123.7 149.1 123.1 148.9 122.8 148.7C122.2 148.3 121.3 147.4 120.8 146.6L114.3 137.3L114 136.8L113.5 136.1C113.4 135.9 113.3 135.9 113.2 135.9C113 135.9 112.9 136.1 112.9 136.4C112.9 136.5 112.9 136.6 112.9 136.7C112.9 137 112.8 137.1 112.8 137.2L112.5 144V144.6V144.7C112.5 145.2 112.7 145.4 113.5 145.7C114.5 146 115.2 146.8 115.2 147.6C115.2 147.9 115.1 148.1 114.8 148.4C114.1 149 113 149.3 110.7 149.3C109.3 149.3 108.5 149.2 108 149C107.2 148.7 106.6 147.9 106.6 147.2C106.6 146.5 107 146 107.6 145.8L108.3 145.6C108.7 145.5 108.8 145 108.9 143.9L109.1 135.6V134.5V134.4C109.1 133.9 109 133.7 108.5 133.5L107.8 133.1C107.1 132.8 106.5 131.8 106.5 131C106.5 130.7 106.6 130.4 106.8 130.2C107.1 129.9 107.4 129.8 107.8 129.7C107.9 129.7 108.6 129.7 109.9 129.6L112.1 129.5H112.4C112.9 129.5 113.3 129.6 113.7 129.7C114.5 130 114.7 130.2 115.7 132.1L116.3 133.2L116.6 133.7L120.9 141.2C121 141.4 121.2 141.7 121.4 142.1C121.6 142.4 121.8 142.7 122 142.9C122.4 143.4 122.6 143.6 122.8 143.6C123 143.6 123.1 143.4 123.1 143.1V142.6V142L123.5 135C123.5 134.7 123.5 134.5 123.6 134.3C123.6 134.2 123.6 134 123.6 133.9C123.6 133.6 123.5 133.4 123.2 133.4L122.6 133.2C122.2 133.1 121.8 132.6 121.5 132.2C121.3 132 121.3 131.7 121.3 131.4C121.3 130.8 121.6 130.4 122.5 130.2C123.7 129.9 125.6 129.6 127 129.6C128.7 129.6 130.1 130.5 130.1 131.7C130.2 132.2 129.5 132.7 128.4 132.8ZM142.8 141.2C142.9 140.4 143 139.6 143 139.1C143 137.6 142.7 137 141.5 135.9C140 134.6 139.1 134.2 137.6 134.2C135.1 134.2 132.5 135.4 130.5 137.4C128.7 139.3 128 140.8 128 143C128 146.2 129.6 148.3 132.8 149.2C133.6 149.4 134.2 149.5 134.9 149.5C136.4 149.5 138.8 149 140.7 148.2C141.5 147.8 142.2 147.4 142.5 146.8C142.7 146.6 142.8 146.1 142.8 145.8C142.8 145 142.3 144.4 141.6 144.4C141.4 144.4 141.1 144.5 140.8 144.6L138.8 145.4C137.5 145.9 135.5 146.3 134 146.3C132.3 146.3 131.5 145.8 131.5 144.8C131.5 144.3 131.7 144.2 132.3 144.1L138.6 143.3L139.4 143.2C139.9 143.1 140.2 143.1 140.2 143.1H140.9C142.1 143 142.6 142.5 142.8 141.2ZM138.3 137.1C139 137.1 139.2 137.5 139.2 138.6C139.2 139.2 139.1 139.6 139 139.7C138.8 139.9 138.2 140.2 137.6 140.2L134.1 140.6C133.7 140.7 133.5 140.7 133.3 140.7C133.1 140.7 133 140.6 133 140.5C133 140.2 133.6 139.4 134.4 138.9C136.1 137.8 137.5 137.1 138.3 137.1ZM148.2 148.5C151 148.5 151.6 148.2 151.6 147.2C151.6 146.5 151.1 145.8 150.3 145.5C150 145.4 149.9 145.3 149.8 145.3C149.6 145.2 149.6 145.1 149.5 145C149.5 144.9 149.4 144.8 149.4 144.6C149.4 144 149.4 143.1 149.5 142.1C149.6 141.2 149.6 140.3 149.6 139.5C149.6 138.5 149.7 138.1 149.7 137.7C149.7 137.5 149.7 137.4 149.7 137.3C149.7 136.3 148.7 135.7 147 135.7C144.8 135.7 143.1 136.5 143.1 137.4C143.1 138 143.8 138.8 144.6 139.1L145.2 139.3C145.6 139.4 145.7 139.7 145.7 140.4V140.8L145.6 143.9C145.6 145.1 145.4 145.4 144.6 145.6C143.8 145.8 143.4 146.2 143.4 146.7C143.4 147.3 143.9 148.1 144.5 148.3C144.9 148.5 145.4 148.5 146.3 148.5H146.5H148.2ZM149.7 132.1C149.8 131.8 149.9 131.5 149.9 131.2C149.9 130.6 149.7 130 149.3 129.6C149 129.3 148.6 129.1 148.1 128.9C147.8 128.8 147.6 128.7 147.5 128.7C146.3 128.7 145.4 129.8 145.4 131.3C145.4 131.9 145.6 132.3 146.3 132.8C146.9 133.3 147.5 133.5 148.1 133.5C148.7 133.6 149.3 133 149.7 132.1ZM169.5 137C169.7 136.8 169.7 136.6 169.7 136.3C169.7 135.5 169.2 134.7 168.5 134.5C168.2 134.4 167.7 134.3 167.1 134.2C166.5 134.1 166 134.1 165.6 134.1C164.8 134.1 164.4 134.2 164 134.6C163.7 134.9 163.6 134.9 163.4 134.9C163.2 134.9 163.1 134.8 162.5 134.6C161.9 134.4 161.6 134.3 160.9 134.3C158.8 134.3 156.9 135.1 155.1 136.9C152.9 139 151.5 141.9 151.5 144.2C151.5 145.7 152.1 146.7 153.7 147.6C155.3 148.5 157.2 149 159.3 149C160.5 149 161.7 148.8 162.5 148.5C162.7 148.4 162.9 148.4 163 148.4C163.3 148.4 163.5 148.6 163.5 149V150.6C163.5 152.4 162.6 153.2 160.7 153.2C159.5 153.2 158.2 153.1 157 152.9L155 152.6C154.8 152.6 154.6 152.5 154.4 152.5C153.7 152.5 153.5 152.7 153.5 153.3C153.5 153.9 153.8 154.3 154.5 154.6C156.3 155.4 158.9 155.9 161.4 155.9C164.3 155.9 166.1 155.1 166.8 153.7C167.3 152.6 167.5 151.1 167.5 148.5C167.5 147.9 167.5 147 167.4 145.8C167.3 144 167.3 142.8 167.3 142C167.3 140.4 167.3 139.4 167.3 139C167.3 138.8 167.3 138.6 167.3 138.5C167.3 137.7 167.6 137.3 168.5 137.3C168.9 137.3 169.1 137.2 169.2 137.2C169.1 137.3 169.3 137.2 169.5 137ZM163.5 142C163.5 142.1 163.5 142.2 163.5 142.4C163.5 143.7 163.4 144.1 163.1 144.4C162.8 144.7 162.4 144.9 161.9 145.2C160.4 145.8 158.6 146.2 157.4 146.2C155.8 146.2 155 145.8 155 145C155 143.7 156.2 141.5 157.7 140C159.2 138.5 161 137.3 161.8 137.3H161.9C162.9 137.4 163.5 138.6 163.5 140.9V141.1C163.5 141.6 163.5 141.9 163.5 142ZM185.7 148.6C187.5 148.6 188.2 148.2 188.2 147.3C188.2 146.7 187.7 146 187.1 145.6C186.4 145.3 186.4 145.2 186.3 144.8C186.3 144.6 186.2 144.3 186.2 143.9C186.1 140.3 185.6 139.1 183.4 137.8C181.8 136.8 180.2 136.4 178.2 136.4C177.6 136.4 177 136.4 176.4 136.5C176.2 136.5 176 136.5 175.9 136.5C175.3 136.5 175.2 136.1 175.2 134.8C175.2 134.5 175.2 133.8 175.3 132.8C175.3 132.3 175.3 132 175.3 131.6C175.3 129.8 174.5 129.1 172.6 129.1C170.1 129.1 168.5 129.7 168.5 130.8C168.5 131.5 169.1 132.3 170.1 132.6L170.8 132.8C171.3 133 171.5 133.2 171.5 134V134.1L171.2 143.7C171.2 143.9 171.2 144.2 171.2 144.6C171.2 145.7 171 146 170.1 146.2C169.4 146.4 169 146.8 169 147.2C169 148.1 169.9 149 171 149.2C171.5 149.3 172 149.3 172.7 149.3C175.5 149.3 177 148.7 177 147.6C177 146.9 176.6 146.3 175.8 145.9C175 145.5 175 145.4 175 144.4V144C175.1 143.3 175.1 142.6 175.1 141.9C175.1 140.2 175.5 139.8 177.5 139.4C178.8 139.2 179.4 139.1 180.1 139.1C181.4 139.1 182.1 139.7 182.3 141.1C182.4 142 182.5 143.3 182.5 144.1C182.5 144.7 182.4 145 182.3 145.2C182.1 145.4 182 145.4 181.1 145.7C180.3 145.9 180 146.2 180 146.7C180 147.1 180.4 147.7 180.9 148C181.6 148.5 182.3 148.6 183.9 148.6H184.4C185 148.6 185.5 148.6 185.7 148.6ZM203.3 145.6C205.4 144.1 206.5 142.4 206.5 140.7C206.5 137.4 202.7 135.1 196.4 134.8C194.9 134.7 194.7 134.6 194.7 133.9V133.8L194.8 131.6C194.8 131.4 194.8 131.1 194.8 130.9C194.8 129.8 194.7 129 194.5 128.6C194.3 128.1 193.4 127.5 192.7 127.5C192.5 127.5 191.9 127.6 190.9 127.8L189.2 128.1C188.5 128.2 188.1 128.8 188.1 129.6C188.1 130.5 188.6 131 189.9 131.1C190.6 131.2 190.7 131.3 190.7 132.4V133.1L190.6 142.7V144.1C190.6 144.7 190.4 144.9 189.9 145.1C189.2 145.3 188.8 145.9 188.8 146.5C188.8 147 189 147.8 189.3 148.1C189.7 148.6 190.4 148.7 191.6 148.7C196.5 148.8 200.2 147.8 203.3 145.6ZM198.2 138.1C200.9 138.1 203 138.9 203 140.1C203 140.9 202 142.1 200.6 143C198.8 144.1 196.3 145.1 195.1 145.1C194.3 145.1 194.2 145 194.2 143V142V140C194.2 139.1 194.6 138.8 195.9 138.5C196.8 138.1 197.5 138.1 198.2 138.1ZM215.3 148.7C219.5 148.7 223 145.2 223 141.2C223 139.5 222.5 138 221.5 137C220.1 135.5 217.4 134.5 215 134.5C212.6 134.5 209.8 135.5 208.3 137C206.9 138.3 206 140.4 206 142.3C206.1 145.9 210.1 148.7 215.3 148.7ZM215.8 136.9C217.7 136.9 219.2 138.4 219.2 140.5C219.2 143.7 217 146.1 214 146.1C211.7 146.1 210 144.6 210 142.6C210 139.7 212.6 137.1 215.7 137L215.8 136.9ZM235.4 138.8C235.5 138.5 235.6 138.1 235.6 137.8C235.6 136.8 234.8 135.9 233.3 135.2C232.9 135 232.5 134.9 232.1 134.9C231.4 134.9 230.2 135.4 229.5 135.9C229.3 136 229.2 136.1 229.1 136.1C228.9 136.1 228.8 135.9 228.6 135.5C228.4 134.8 227.6 134.5 226 134.5C224.1 134.5 222.7 135.1 222.7 135.9C222.7 136.6 223.5 137.5 224.4 137.8C224.8 138 224.9 138 225 138.3C225 138.4 225.1 138.5 225.1 138.6V139L225.2 143.6V143.8C225.2 145.3 225 145.5 224.1 145.6C223.3 145.7 222.7 146.3 222.7 146.9C222.7 147.9 224 148.7 225.6 148.7C227.3 148.7 229.2 148.5 230.3 148.1C230.8 147.9 231.3 147.4 231.3 147C231.3 146.4 230.8 145.9 229.6 145.4C229.3 145.3 229.1 145.2 229.1 145C229.1 144.9 229 144.8 229 144.6C229 144.4 229 144.2 229 144.1C229 143.2 229.4 141.4 229.9 139.7C230.2 138.6 231 137.7 231.4 137.7C231.6 137.7 231.7 137.8 231.7 138.1C231.7 138.2 231.7 138.3 231.7 138.5C231.6 139 231.6 139.3 231.6 139.6C231.6 140.9 232.3 141.8 233.2 141.8C234 141.9 235 140.6 235.4 138.8ZM251 148.6C252.8 148.6 253.5 148.2 253.5 147.3C253.5 146.7 253 146 252.4 145.6C251.7 145.3 251.7 145.2 251.6 144.8C251.6 144.6 251.5 144.3 251.5 143.9C251.4 140.3 250.9 139.1 248.7 137.8C247.1 136.8 245.5 136.4 243.5 136.4C242.9 136.4 242.3 136.4 241.7 136.5C241.5 136.5 241.3 136.5 241.2 136.5C240.6 136.5 240.5 136.1 240.5 134.8C240.5 134.5 240.5 133.8 240.6 132.8C240.6 132.3 240.6 132 240.6 131.7C240.6 129.9 239.8 129.2 237.9 129.2C235.4 129.2 233.8 129.8 233.8 130.9C233.8 131.6 234.4 132.4 235.4 132.7L236.1 132.9C236.6 133.1 236.8 133.3 236.8 134.1V134.2L236.5 143.8C236.5 144 236.5 144.3 236.5 144.7C236.5 145.8 236.3 146.1 235.4 146.3C234.7 146.5 234.3 146.9 234.3 147.3C234.3 148.2 235.2 149.1 236.3 149.3C236.8 149.4 237.3 149.4 238 149.4C240.8 149.4 242.3 148.8 242.3 147.7C242.3 147 241.9 146.4 241.1 146C240.3 145.6 240.3 145.5 240.3 144.5V144C240.4 143.3 240.4 142.6 240.4 141.9C240.4 140.2 240.8 139.8 242.9 139.4C244.2 139.2 244.8 139.1 245.5 139.1C246.8 139.1 247.5 139.7 247.7 141.1C247.8 142 247.9 143.3 247.9 144.1C247.9 144.7 247.8 145 247.7 145.2C247.5 145.4 247.4 145.4 246.5 145.7C245.7 145.9 245.4 146.2 245.4 146.7C245.4 147.1 245.8 147.7 246.3 148C247 148.5 247.7 148.6 249.3 148.6H249.8C250.4 148.6 250.8 148.6 251 148.6ZM261 148.7C265.2 148.7 268.7 145.3 268.7 141.2C268.7 139.5 268.2 138 267.2 137C265.8 135.5 263.1 134.5 260.7 134.5C258.3 134.5 255.5 135.5 254 137C252.6 138.3 251.7 140.4 251.7 142.3C251.7 145.9 255.8 148.7 261 148.7ZM261.5 136.9C263.4 136.9 264.9 138.4 264.9 140.5C264.9 143.7 262.7 146.1 259.7 146.1C257.4 146.1 255.7 144.6 255.7 142.6C255.7 139.7 258.3 137.1 261.4 137L261.5 136.9ZM278.1 148.7C282.3 148.7 285.8 145.2 285.8 141.2C285.8 139.5 285.3 138 284.3 137C282.9 135.5 280.2 134.5 277.8 134.5C275.4 134.5 272.6 135.5 271.1 137C269.7 138.3 268.8 140.4 268.8 142.3C268.9 145.9 272.9 148.7 278.1 148.7ZM278.6 136.9C280.5 136.9 282 138.4 282 140.5C282 143.7 279.8 146.1 276.8 146.1C274.5 146.1 272.8 144.6 272.8 142.6C272.8 139.7 275.4 137.1 278.5 137L278.6 136.9ZM303.6 149.1C304.2 148.9 304.4 148.7 304.4 148.2C304.4 147.1 303.6 146.2 302.5 146.1L301.9 146C301.5 146 301.4 145.8 301.3 145L301.2 143.3L301.4 132L301.5 130.6C301.4 129.2 300.4 128.2 299 128.2C298.5 128.2 296.8 128.5 295.6 128.7C294.9 128.9 294.5 129.3 294.5 129.8C294.5 130.4 295.2 131.2 295.9 131.4L296.8 131.7C297.4 131.9 297.5 132 297.5 132.7C297.5 133.1 297.5 133.5 297.5 133.7V134C297.5 134.7 297.3 135 297 135H296.9L296.4 134.9C296.2 134.9 296.1 134.8 295.9 134.8C293.7 134.8 291.1 136.1 288.8 138.4C286.8 140.4 286 142 286 143.8C286 145.7 286.8 147.1 288.4 148C289.9 148.8 291.8 149.3 293.6 149.3C294.5 149.3 295.4 149.2 296.5 148.9C296.9 148.8 297.2 148.7 297.4 148.7C297.7 148.7 297.9 148.8 298.1 149.1C298.4 149.4 298.5 149.5 298.9 149.6C299.2 149.7 299.4 149.7 299.7 149.7C300.6 149.9 302.4 149.5 303.6 149.1ZM297.3 139.2C297.5 139.7 297.5 140.9 297.5 142.6C297.5 143.9 297.3 144.8 296.9 145.2C296.7 145.4 296.2 145.7 295.6 145.9C294.5 146.3 293.5 146.4 292.5 146.4C290.6 146.4 289.4 145.9 289.4 145C289.4 144 290.5 142.2 292.2 140.6C293.8 139.1 295.3 138.1 296.2 138.1C296.7 138.3 297.2 138.6 297.3 139.2ZM329.2 131.9V131.3C329.2 130.1 329.1 129.8 328.7 129.4C328.3 129.1 327.8 128.9 327.2 128.9C327.1 128.9 326.1 128.9 324.4 129L318.1 129.3C314.9 129.5 313.1 129.6 312.5 129.9C312 130.1 311.7 130.6 311.7 131.1C311.7 131.9 312.5 132.9 313.5 133.4C314.2 133.7 314.2 133.8 314.3 134.3C314.3 134.5 314.4 134.6 314.4 134.8L314.3 144.3C314.3 144.8 314.2 145.3 314.1 145.4C313.9 145.6 313.9 145.6 313.3 145.8C312.5 146 312.1 146.4 312.1 147C312.1 148.2 312.9 148.9 314.2 148.9C315.8 148.9 318 148.7 319.3 148.3C320.2 148.1 320.8 147.6 320.8 147C320.8 146.6 320.6 146 320.2 145.7C319.9 145.4 319.7 145.3 319 145C318.4 144.8 318.3 144.5 318.3 143.9C318.3 142.8 318.5 142.2 319.1 142.1L319.7 142L325.1 141.1L325.9 141C326.8 140.9 327.3 140.4 327.3 139.9C327.3 138.8 326.3 138.1 324.9 138.1C324.7 138.1 324.4 138.1 324.1 138.1L319.8 138.5L319.1 138.6H319C318.5 138.6 318.2 138.3 318.2 137.6V137.5L318.4 134.6C318.5 133.1 318.8 132.8 320.2 132.6L322.9 132.2C323.6 132.1 324.1 132 324.5 132C325.1 132 325.2 132.1 325.3 132.8C325.3 132.8 325.4 133.1 325.6 133.7C325.7 134 325.8 134.2 325.8 134.3C325.9 134.5 326 134.8 326.2 135C326.6 135.5 327.3 135.9 327.9 135.9C328.6 135.9 329.1 135.3 329.1 134.4L329.2 131.9ZM336.9 148.7C341.1 148.7 344.6 145.2 344.6 141.2C344.6 139.5 344.1 138 343.1 137C341.7 135.5 339 134.5 336.6 134.5C334.2 134.5 331.4 135.5 329.9 137C328.5 138.3 327.6 140.4 327.6 142.3C327.7 145.9 331.8 148.7 336.9 148.7ZM337.4 136.9C339.3 136.9 340.8 138.4 340.8 140.5C340.8 143.7 338.6 146.1 335.6 146.1C333.3 146.1 331.6 144.6 331.6 142.6C331.6 139.7 334.2 137.1 337.3 137L337.4 136.9ZM354 148.7C358.2 148.7 361.7 145.2 361.7 141.2C361.7 139.5 361.2 138 360.2 137C358.8 135.5 356.1 134.5 353.7 134.5C351.3 134.5 348.5 135.5 347 137C345.6 138.3 344.7 140.4 344.7 142.3C344.8 145.9 348.9 148.7 354 148.7ZM354.5 136.9C356.4 136.9 357.9 138.4 357.9 140.5C357.9 143.7 355.7 146.1 352.7 146.1C350.4 146.1 348.7 144.6 348.7 142.6C348.7 139.7 351.3 137.1 354.4 137L354.5 136.9ZM379.6 149.1C380.2 148.9 380.4 148.7 380.4 148.2C380.4 147.1 379.6 146.2 378.5 146.1L377.9 146C377.5 146 377.4 145.8 377.3 145L377.2 143.3L377.4 132L377.5 130.6C377.4 129.2 376.4 128.2 375 128.2C374.5 128.2 372.8 128.5 371.6 128.7C370.9 128.9 370.4 129.3 370.4 129.8C370.4 130.4 371.1 131.2 371.8 131.4L372.7 131.7C373.3 131.9 373.4 132 373.4 132.7C373.4 133.1 373.4 133.5 373.4 133.7V134C373.4 134.7 373.2 135 372.9 135H372.8L372.3 134.9C372.1 134.9 372 134.8 371.8 134.8C369.6 134.8 367 136.1 364.7 138.4C362.7 140.4 361.9 142 361.9 143.8C361.9 145.7 362.7 147.1 364.3 148C365.8 148.8 367.7 149.3 369.5 149.3C370.4 149.3 371.3 149.2 372.4 148.9C372.8 148.8 373.1 148.7 373.3 148.7C373.6 148.7 373.8 148.8 374 149.1C374.3 149.4 374.4 149.5 374.8 149.6C375.1 149.7 375.3 149.7 375.6 149.7C376.5 149.9 378.3 149.5 379.6 149.1ZM373.3 139.2C373.5 139.7 373.5 140.9 373.5 142.7C373.5 144 373.3 144.9 372.9 145.3C372.7 145.5 372.2 145.8 371.6 146C370.5 146.4 369.5 146.5 368.5 146.5C366.6 146.5 365.4 146 365.4 145.1C365.4 144.1 366.6 142.3 368.2 140.7C369.8 139.2 371.3 138.2 372.2 138.2C372.7 138.3 373.1 138.6 373.3 139.2ZM413.8 141.3C415 141.2 415.9 140.4 415.9 139.5C415.9 138.9 415.4 138.1 414.8 137.9C414.3 137.7 413.3 137.6 412.1 137.6C411.4 137.6 410.2 137.7 408.7 137.8C406.9 138 405.6 138.2 404.8 138.3C404 138.5 403.5 138.6 403.2 138.6C402.5 138.6 402.4 138.8 402.4 139.6C402.4 140 402.5 140.5 402.8 140.9C403.1 141.3 403.3 141.5 403.6 141.5C403.8 141.5 403.9 141.5 404.1 141.5C404.4 141.4 404.7 141.4 405 141.4C405.3 141.4 405.6 141.5 405.6 141.7C405.6 141.8 405.5 142.1 405.2 142.5C405 142.7 404.9 142.9 404.7 142.9C404.2 142.9 403.5 142.4 401.9 141C400.4 139.7 400.1 139.4 400.1 139.2C400.1 139 400.4 138.8 401.2 138.4C401.9 138 402.4 137.7 402.7 137.6C405.6 136 406.5 135.3 407.2 134C407.5 133.5 407.7 132.9 407.7 132.4C407.7 131.1 407 130.1 405.3 129.1C403 127.7 400.9 127 398.9 127C394.9 127 391.4 130.1 391.4 133.5C391.4 134.4 391.6 135.3 391.9 136C392 136.3 392.2 136.6 392.5 137C392.9 137.5 393 137.8 393 137.9C393 138.1 392.8 138.3 392.5 138.6L391.8 139C389.8 140.2 388.7 141.2 388.1 142.6C387.8 143.2 387.7 143.8 387.7 144.3C387.7 147.3 391.9 150.1 396.6 150.1C399.1 150.1 402.6 149.4 404.1 148.7L405.3 148.1C405.6 147.9 405.8 147.9 406 147.9C406.3 147.9 406.5 148 407.2 148.3C408.3 148.8 409.3 149.1 410.1 149.1C411 149.1 411.8 148.5 411.8 147.7C411.8 147.2 411.5 146.8 411 146.4L409.9 145.7C409.7 145.5 409.5 145.3 409.5 145.1C409.5 145 409.6 144.9 409.7 144.7C410 144.2 410.1 144 410.3 143.4C410.4 143 410.5 142.7 410.5 142.5C410.6 141.9 410.7 141.8 411.3 141.7L412.2 141.6L413.8 141.3ZM400.7 144.7C400.8 144.8 400.8 144.9 400.8 144.9C400.8 145.2 399.6 145.8 398.3 146.2C397.8 146.3 397.3 146.4 396.8 146.5C396.2 146.6 395.7 146.7 395.1 146.7C393 146.7 391.6 146.1 391.6 145.1C391.6 144.4 392.3 143.5 393.5 142.7C394.5 142 395.6 141.4 396 141.4C396.3 141.4 396.6 141.6 398.4 143L400 144.2C400.3 144.4 400.5 144.5 400.7 144.7ZM400.6 129.8C402 129.8 403.2 130.4 403.2 131.2C403.2 132.1 402 133.3 399.7 134.5L397.4 135.7C397.2 135.8 397 135.9 396.9 135.9C396.5 135.9 395.9 135.3 395.6 134.7C395.5 134.3 395.3 133.8 395.3 133.4C395.3 132.3 396.6 130.8 398.2 130.2C398.9 130 399.8 129.8 400.6 129.8ZM441.9 139.6C443.4 138.5 444.6 136.4 444.6 134.9C444.6 132.6 442.8 130.9 439.3 129.8C436.8 129 434.2 128.6 431.6 128.6C429.9 128.6 428.2 128.8 425.5 129.2C424.8 129.3 424.2 129.5 424 129.7C423.8 129.9 423.7 130.3 423.7 130.7C423.7 131.8 424.3 132.5 425.4 132.9C426.2 133.2 426.4 133.4 426.4 134.2V134.6L426.2 144.1C426.2 145.3 426 145.6 425.1 145.7C424.1 145.9 423.7 146.2 423.7 146.9C423.7 148.2 425.2 149.3 426.9 149.3C427.1 149.3 427.4 149.3 427.9 149.2C429.5 149 430.8 148.9 431.7 148.7C432.6 148.5 432.9 148.2 432.9 147.7C432.9 147.4 432.8 147.1 432.6 146.7C432.2 146.1 431.6 145.6 431.1 145.5C430.6 145.3 430.5 145.3 430.4 144.9C430.4 144.7 430.4 144.5 430.4 144.2V144.1C430.4 143.6 430.6 143.5 431.2 143.4C433.9 143.4 439.2 141.4 441.9 139.6ZM435.5 132.2C438 132.2 440.4 133.4 440.4 134.7C440.4 135.6 439.3 136.9 437.8 137.9C436.4 138.8 435 139.4 433.5 139.7C432.8 139.8 432 139.9 431.2 139.9H431.1C430.6 139.9 430.5 139.8 430.5 138.6V137.5L430.8 134C430.9 133 431 132.9 431.6 132.7C432.5 132.4 434.4 132.2 435.5 132.2ZM461.3 148.6C463.1 148.6 463.8 148.2 463.8 147.3C463.8 146.7 463.3 146 462.7 145.6C462 145.3 462 145.2 461.9 144.8C461.9 144.6 461.8 144.3 461.8 143.9C461.7 140.3 461.2 139.1 459 137.8C457.4 136.8 455.8 136.4 453.8 136.4C453.2 136.4 452.6 136.4 452 136.5C451.8 136.5 451.6 136.5 451.5 136.5C450.9 136.5 450.8 136.1 450.8 134.8C450.8 134.5 450.8 133.8 450.9 132.8C450.9 132.3 450.9 132 450.9 131.6C450.9 129.8 450.1 129.1 448.2 129.1C445.7 129.1 444.1 129.7 444.1 130.8C444.1 131.5 444.7 132.3 445.7 132.6L446.4 132.8C446.9 133 447.1 133.2 447.1 134V134.1L446.8 143.7C446.8 143.9 446.8 144.2 446.8 144.6C446.8 145.7 446.7 146 445.7 146.2C445 146.4 444.6 146.8 444.6 147.2C444.6 148.1 445.5 149 446.6 149.2C447.1 149.3 447.6 149.3 448.3 149.3C451.1 149.3 452.6 148.7 452.6 147.6C452.6 146.9 452.2 146.3 451.5 145.9C450.7 145.5 450.7 145.4 450.7 144.4V144C450.8 143.3 450.8 142.6 450.8 141.9C450.8 140.2 451.2 139.8 453.2 139.4C454.5 139.2 455.1 139.1 455.8 139.1C457.1 139.1 457.8 139.7 458 141.1C458.1 142 458.2 143.3 458.2 144.1C458.2 144.7 458.1 145 458 145.2C457.8 145.4 457.7 145.4 456.8 145.7C456 145.9 455.7 146.2 455.7 146.7C455.7 147.1 456.1 147.7 456.6 148C457.3 148.5 458 148.6 459.6 148.6H460.1C460.6 148.6 461.1 148.6 461.3 148.6ZM479.5 148.6C480.1 148.3 480.3 148 480.3 147.5C480.3 146.8 479.8 146.1 479.2 145.9L478.4 145.7C478.1 145.6 477.9 145.4 477.9 145.2C477.9 145 477.9 144.8 477.9 144.5L478 143.6L478.1 141.9C478.1 141.5 478.1 141.2 478.1 140.8C478.1 136.6 475.9 134.1 472.2 134.1C470.4 134.1 468.6 134.8 466.4 136.3C465 137.3 464.4 138 464.4 138.9C464.4 139.8 464.8 140.3 465.6 140.3C465.7 140.3 465.9 140.3 466.1 140.2C466.8 140 467.2 139.9 468.2 139.2C470.2 137.9 471.9 137.1 472.8 137.1C473.8 137.1 474.4 137.7 474.4 138.6C474.4 138.8 474.4 139 474.3 139.3C474.2 139.6 474.2 139.7 473.8 139.7L472.2 139.9C469.5 140.3 466.3 141.6 464.6 143.1C464 143.6 463.5 144.7 463.5 145.6C463.5 147.5 465.8 148.9 468.8 148.9C469.9 148.9 470.7 148.8 471.9 148.5L473.3 148.2C473.4 148.2 473.5 148.2 473.6 148.2C473.8 148.2 473.9 148.3 474 148.4L474.2 148.8C474.5 149.2 475.3 149.5 476.2 149.5C477.2 149.5 478.5 149.1 479.5 148.6ZM473.4 143.7C473.9 143.7 474.2 143.9 474.2 144.3C474.2 144.7 473.7 145 472.9 145.3C471.8 145.7 470.8 145.8 469.9 145.8H469.2C468.6 145.8 468.3 145.7 468.3 145.6C468.3 145.2 469.4 144.7 471.5 144.1C472.2 143.8 473 143.7 473.4 143.7ZM493 138.8C493.1 138.5 493.2 138.1 493.2 137.8C493.2 136.8 492.4 135.9 490.9 135.2C490.5 135 490.1 134.9 489.8 134.9C489.1 134.9 487.9 135.4 487.2 135.9C487 136 486.9 136.1 486.8 136.1C486.6 136.1 486.5 135.9 486.3 135.5C486.1 134.8 485.3 134.5 483.7 134.5C481.8 134.5 480.4 135.1 480.4 135.9C480.4 136.6 481.2 137.5 482.1 137.8C482.5 137.9 482.6 138 482.7 138.3C482.7 138.4 482.8 138.5 482.8 138.6V139L482.9 143.6V143.8C482.9 145.3 482.7 145.5 481.8 145.6C481 145.7 480.4 146.3 480.4 146.9C480.4 147.9 481.7 148.7 483.3 148.7C485 148.7 486.9 148.5 488 148.1C488.5 147.9 489 147.4 489 147C489 146.4 488.5 145.9 487.3 145.4C487 145.3 486.8 145.2 486.8 145C486.8 144.9 486.7 144.8 486.7 144.6C486.7 144.4 486.7 144.2 486.7 144.1C486.7 143.2 487.1 141.4 487.6 139.7C487.9 138.6 488.7 137.7 489.1 137.7C489.3 137.7 489.4 137.8 489.4 138.1C489.4 138.2 489.4 138.3 489.4 138.5C489.3 139 489.3 139.3 489.3 139.6C489.3 140.9 490 141.8 490.9 141.8C491.7 141.9 492.7 140.6 493 138.8ZM516.2 149.1C519.6 149.1 521 148.6 521 147.5C521 146.9 520.7 146.4 520.3 146.2L519.6 145.9C519.3 145.8 519 145.2 519 144.6V142.8C519 138.5 516.8 136.2 512.8 136.2C512 136.2 511 136.3 510.4 136.5C510.1 136.6 509.7 136.7 509.2 137C508.1 137.5 507.9 137.5 507.7 137.5C507.5 137.5 507.4 137.5 507 137.3C505.7 136.6 504.2 136.2 502.7 136.2C501.8 136.2 500.9 136.3 500.5 136.3C500.1 136.4 499.9 136.4 499.7 136.4C499.4 136.4 499.2 136.3 499 136.2L498.5 135.7C498.1 135.3 497.5 135 496.9 135C496.1 135 494.8 135.3 493.9 135.7C493.3 136 493.1 136.3 493.1 136.9C493.1 137.6 493.5 137.9 494.5 138.3C495.1 138.5 495.3 138.6 495.4 138.7C495.6 138.9 495.7 139.2 495.7 139.9V145.1C495.7 145.4 495.6 145.8 495.5 146C495.4 146.2 495.1 146.3 494.7 146.5C493.9 146.9 493.7 147.1 493.7 147.7C493.7 148.6 494.4 149.3 495.4 149.3H496.4H497.3C498.9 149.3 500.8 149 501.4 148.6C501.6 148.4 501.8 148.2 501.8 147.9C501.8 147.3 501.5 146.8 500.7 146.4C500 146 499.7 145.7 499.6 145.3C499.6 145.2 499.5 145 499.5 144.7C499.5 144.4 499.5 144.2 499.5 144.2V141.3C499.5 139.8 500.9 138.7 502.7 138.7C503.7 138.7 504.6 139.2 504.9 139.9C505.2 140.6 505.4 141.8 505.4 143.2V144.3C505.4 145.3 505.3 145.4 504.5 145.6C503.7 145.8 503.2 146.2 503.2 146.9C503.2 147.4 503.7 147.9 504.3 148.2C504.8 148.4 505.4 148.5 506.6 148.5C509.7 148.5 510.9 148.1 510.9 147C510.9 146.5 510.6 146 510.1 145.7L509.6 145.4C509.1 145.1 509.1 145 509.1 144.2C509.1 144.1 509.1 144 509.1 143.8L509 141.9V141.8C509 141.2 509.2 140.7 509.7 140.3C510.6 139.5 512 138.9 513.2 138.9C514.6 138.9 515.3 140.5 515.3 143.9C515.3 145.6 515.1 146.1 514.5 146.3L513.8 146.5C513.4 146.6 513.1 147 513.1 147.4C513.1 148.4 514.3 149.1 516.2 149.1ZM536.5 148.6C537.1 148.3 537.3 148 537.3 147.5C537.3 146.8 536.8 146.1 536.2 145.9L535.4 145.7C535.1 145.6 534.9 145.4 534.9 145.2C534.9 145 534.9 144.8 534.9 144.5L535 143.6L535.1 141.9C535.1 141.5 535.1 141.2 535.1 140.8C535.1 136.6 533 134.1 529.2 134.1C527.4 134.1 525.6 134.8 523.4 136.3C522 137.3 521.4 138 521.4 138.9C521.4 139.8 521.8 140.3 522.6 140.3C522.7 140.3 522.9 140.3 523.1 140.2C523.8 140 524.2 139.9 525.2 139.2C527.2 137.9 528.9 137.1 529.8 137.1C530.8 137.1 531.4 137.7 531.4 138.6C531.4 138.8 531.4 139 531.3 139.3C531.2 139.6 531.2 139.7 530.8 139.7L529.2 139.9C526.5 140.3 523.3 141.6 521.6 143.1C521 143.6 520.5 144.7 520.5 145.6C520.5 147.5 522.8 148.9 525.8 148.9C526.9 148.9 527.7 148.8 528.9 148.5L530.3 148.2C530.4 148.2 530.5 148.2 530.6 148.2C530.8 148.2 530.9 148.3 531 148.4L531.2 148.8C531.5 149.2 532.4 149.5 533.2 149.5C534.2 149.5 535.5 149.1 536.5 148.6ZM530.5 143.7C531 143.7 531.3 143.9 531.3 144.3C531.3 144.7 530.8 145 530 145.3C528.9 145.7 527.9 145.8 527 145.8H526.3C525.7 145.8 525.4 145.7 525.4 145.6C525.4 145.2 526.5 144.7 528.6 144.1C529.2 143.8 530 143.7 530.5 143.7ZM551.5 135.4V135.3C551.5 134.7 551 134.1 550.2 133.7C549.9 133.6 549.7 133.5 549.5 133.5C549.2 133.5 548.9 133.7 548.5 134.1C548.3 134.3 548.2 134.4 548.1 134.4C548 134.4 547.9 134.4 547.8 134.3L547.3 134C546.9 133.8 546.2 133.7 545.5 133.7C544.1 133.7 542.2 134.4 540.7 135.4C538.3 137.1 536.6 140 536.6 142.6C536.6 146.2 539.7 148.9 544 148.9C545.7 148.9 547.5 148.4 549.4 147.3C550.8 146.5 551.4 145.8 551.4 144.8C551.4 144.1 550.9 143.6 550.2 143.6C550 143.6 549.8 143.7 549.2 143.9C548.4 144.3 547.8 144.6 547.7 144.6C547.3 144.8 546.7 145 546.1 145.1C545.1 145.3 544.1 145.4 543.2 145.4C542.3 145.4 541.4 145.3 540.9 145.2C540.3 145 539.8 144.3 539.8 143.7C539.8 142.8 540.5 141.2 541.4 140.1C542.7 138.5 545.1 137 546.5 137C547.3 137 547.7 137.5 547.7 138.3V138.8C547.7 140 548 140.5 548.9 140.9C549.2 141.1 549.4 141.1 549.6 141.1C550.4 141.1 550.8 140.3 551.1 138.5L551.5 135.4ZM568.9 139.3C570.4 138.8 571.2 138.1 571.2 137.4C571.2 136.5 570.4 136.1 568.6 136.1L566.8 136H566.3C564.6 136 563.9 136.2 563.5 136.6C563.3 136.8 563.2 137.1 563.2 137.4C563.2 137.8 563.3 137.9 563.6 138.3C564.3 138.9 564.4 139.1 564.4 139.6V139.7L564.2 140.2L564 140.8L562.5 144.3L562.3 144.8L562.1 145.2C561.8 145.7 561.7 145.8 561.5 145.8C561.3 145.8 561.1 145.6 560.9 145.1L560.6 144.5L558.8 141.1L558.2 140.1C558 139.8 558 139.5 558 139.2C558 138.9 558.2 138.7 558.7 138.4C559.3 138.2 559.5 137.9 559.5 137.6C559.5 136.4 558 135.6 555.7 135.6C555.1 135.6 554.7 135.6 554.4 135.7L553.6 135.9C553.5 135.9 553.2 136 552.8 136C551.8 136.1 551.5 136.4 551.5 137.2C551.5 138.3 551.9 138.7 552.7 139C553.8 139.3 553.9 139.3 554.2 139.7C554.4 140 554.6 140.3 554.8 140.8C554.9 141 555 141.1 555 141.2L559 149.1C559.1 149.4 559.2 149.5 559.2 149.6C559.3 149.7 559.3 149.8 559.4 150C559.5 150.2 559.5 150.3 559.5 150.4C559.5 150.8 559.2 151.5 558.8 152C558.5 152.4 558.2 152.7 557.9 152.8C557.6 153 557.2 153.1 556.8 153.1C556.3 153.1 556 153 555.2 152.6C554.3 152.2 554.3 152.1 553.9 152.1C553.7 152.1 553.5 152 553.4 152C552.7 152 552.2 152.5 552.2 153.2C552.2 154.4 553.2 155.2 555.4 155.7C556 155.8 556.8 155.9 557.3 155.9C559.2 155.9 560.8 154.9 561.9 153C562.3 152.4 562.7 151.6 563.2 150.7C563.4 150.4 563.5 150.1 563.6 149.9L566.9 142.5L567.4 141.5C567.9 140.2 568.1 140 568.3 139.7C568.2 139.6 568.3 139.5 568.9 139.3Z" fill="#FFFFFE"/>
<path d="M178.5 63.8L177.6 64.2001C176.6 64.7001 175.9 65.8001 175.8 67.1001L175.7 68.6001L173.8 94.9001L173.6 96.8V97.8C173.6 99.4 174 100.2 175 100.7L177.1 101.7C178.2 102.3 179.2 104 179.2 105.4C179.2 106.4 178.7 107.5 178 108.1C176.3 109.3 169.1 110.4 162.5 110.4C161 110.4 159.6 109.6 158.6 108.2C157.8 107.2 157.2 105.5 157.2 104.5C157.2 103.2 158.2 102.4 160.9 101.5C162.8 100.8 163.4 100 163.4 98.3L163.3 94.3C163.2 91.9 162.7 91.4001 160.4 91.4001L154.8 91.5001C149.6 91.6001 144.6 92.1 142.3 92.8C140.1 93.5 139.2 95.0001 139.2 98.1001C139.2 99.2001 139.3 100.1 139.6 100.8C139.9 101.7 140.4 102.1 142.4 102.9C144.5 103.8 145.6 105.2 145.6 107C145.6 110.2 142.1 111.6 134.1 111.6C132.1 111.6 130.4 111.4 128.3 111.1C124.6 110.5 122.9 109 122.9 106.2C122.9 104.8 123.5 104.2 125.4 103.8C128.2 103.2 129.1 102.3 129.1 100.1L129.2 98.6001L129.7 71.4001V70.0001C129.7 67.8001 129.5 67.3001 127.9 66.4001C124.8 64.6001 123.4 63.1001 123.4 61.5001C123.4 60.6001 123.8 59.8 124.4 59.3C126.3 57.6 133 56.4001 139.5 56.4001C144.2 56.4001 147.6 58.7 147.6 61.8C147.6 63.5 146.2 64.7001 143 65.9001C142.4 66.1001 142 66.4001 141.7 66.6001C141.4 66.9001 141.1 67.4001 141.1 67.9001C141.1 68.1001 141.1 68.5001 141 68.9001L140.2 79.2001V80.0001C140.2 82.3001 140.8 83.1001 142.5 83.1001H142.7C143.9 83.1001 145.2 83.0001 146.5 82.9001C150.2 82.6001 152.5 82.5001 153.6 82.4001H156.6L160.4 82.2001C161.8 82.0001 162.7 82.0001 163.1 81.9001C164.1 81.7001 164.4 81.3001 164.4 78.9001L165 68.8C165.1 68.1 165.1 67.5 165.1 67.3C165.1 66.2 164.8 65.7001 163.6 65.1001C161.1 63.9001 160.9 63.8001 160 62.6001C159.2 61.6001 158.9 60.7 158.9 59.8C158.9 58.9 159.2 58.0001 159.7 57.4001C160.2 56.9001 160.9 56.5 161.8 56.3C165 55.5 171.2 54.8 175.1 54.8C177.6 54.8 179 55.4001 180.1 56.9001C181 58.1001 181.5 59.4001 181.5 60.6001C181.2 61.9001 180.4 62.9 178.5 63.8ZM222 110C223.5 109.2 224.1 108.3 224.1 107.2C224.1 105.3 222.8 103.5 221.3 103L219.1 102.4C218.2 102.1 217.7 101.7 217.7 101C217.7 100.5 217.8 99.9001 217.8 99.2001L218 96.8L218.3 92.3C218.4 91.3 218.4 90.5001 218.4 89.5001C218.4 78.4001 212.8 72.0001 203 72.0001C198.2 72.0001 193.5 73.7 187.8 77.8C184.1 80.4 182.6 82.3001 182.6 84.6001C182.6 86.9001 183.7 88.2001 185.7 88.2001C186 88.2001 186.5 88.1001 187 88.0001C188.9 87.6001 189.9 87.1001 192.4 85.4001C197.6 81.9001 202 79.8 204.5 79.8C207.1 79.8 208.6 81.3 208.6 83.8C208.6 84.2 208.5 84.8001 208.4 85.6001C208.2 86.5001 208.1 86.6001 207 86.7001L202.8 87.3C195.8 88.3 187.2 91.8001 182.8 95.6001C181.2 97.0001 180 99.7001 180 102.1C180 107 186.1 110.8 193.9 110.8C196.7 110.8 198.9 110.6 202.1 109.8L205.8 108.9C206.1 108.8 206.4 108.8 206.7 108.8C207.3 108.8 207.6 109 207.8 109.3L208.4 110.3C209.1 111.3 211.4 112.1 213.6 112.1C215.8 112.1 219.5 111.4 222 110ZM206.2 97.1001C207.6 97.1001 208.2 97.6001 208.2 98.7001C208.2 99.7001 207 100.5 204.8 101.2C201.9 102.2 199.2 102.6 196.9 102.6H195C193.4 102.6 192.7 102.4 192.7 102C192.7 101 195.6 99.6001 201 97.9001C202.8 97.5001 205 97.1001 206.2 97.1001ZM259.4 84.3C259.6 83.4 259.8 82.4001 259.8 81.6001C259.8 78.9001 257.7 76.5 253.7 74.8C252.6 74.3 251.6 74.1001 250.7 74.1001C248.8 74.1001 245.8 75.3 243.9 76.8C243.5 77.1 243.2 77.3 242.9 77.3C242.3 77.3 242 76.9 241.6 75.8C241 74 238.9 73.2001 234.8 73.2001C229.9 73.2001 226.2 74.8001 226.2 76.9001C226.2 78.7001 228.3 81.2001 230.7 81.9001C231.7 82.3001 232.1 82.5001 232.3 83.1001C232.4 83.3001 232.5 83.6 232.5 83.8V84.9001L232.7 96.9001V97.3C232.7 101.1 232.2 101.8 229.8 102.2C227.7 102.5 226.1 104 226.1 105.6C226.1 108.3 229.4 110.4 233.7 110.4C238.2 110.4 243.1 109.8 245.9 108.8C247.3 108.3 248.4 107.1 248.4 105.8C248.4 104.3 247 103 243.9 101.7C243 101.4 242.7 101.1 242.5 100.7C242.4 100.5 242.3 100.1 242.3 99.7001C242.2 99.1001 242.2 98.7001 242.2 98.4001C242.2 95.9001 243.2 91.2001 244.6 86.9001C245.5 84.1001 247.4 81.7001 248.6 81.7001C249.2 81.7001 249.5 82.0001 249.5 82.7001C249.5 82.9001 249.4 83.3 249.4 83.8C249.2 85.1 249.1 86 249.1 86.8C249.1 90.3 250.8 92.6001 253.4 92.6001C255.8 92.4001 258.3 88.9 259.4 84.3ZM294.4 84.3C294.6 83.4 294.8 82.4001 294.8 81.6001C294.8 78.9001 292.7 76.5 288.7 74.8C287.6 74.3 286.6 74.1001 285.7 74.1001C283.8 74.1001 280.8 75.3 278.9 76.8C278.5 77.1 278.2 77.3 277.9 77.3C277.3 77.3 277 76.9 276.6 75.8C276 74 273.9 73.2001 269.8 73.2001C264.9 73.2001 261.2 74.8001 261.2 76.9001C261.2 78.7001 263.3 81.2001 265.7 81.9001C266.7 82.3001 267 82.5001 267.3 83.1001C267.4 83.3001 267.5 83.6 267.5 83.8V84.9001L267.7 96.9001V97.3C267.7 101.1 267.2 101.8 264.8 102.2C262.7 102.5 261.1 103.9 261.1 105.6C261.1 108.3 264.4 110.4 268.7 110.4C273.2 110.4 278.1 109.8 280.9 108.8C282.3 108.3 283.4 107.1 283.4 105.8C283.4 104.3 282 103 278.9 101.7C278 101.4 277.7 101.1 277.5 100.7C277.4 100.5 277.3 100.1 277.3 99.7001C277.2 99.1001 277.2 98.7001 277.2 98.4001C277.2 95.9001 278.2 91.2001 279.6 86.9001C280.5 84.1001 282.4 81.7001 283.6 81.7001C284.2 81.7001 284.5 82.0001 284.5 82.7001C284.5 82.9001 284.4 83.3 284.4 83.8C284.2 85.1 284.1 86 284.1 86.8C284.1 90.3 285.8 92.6001 288.4 92.6001C290.8 92.4001 293.4 88.9 294.4 84.3ZM309.5 109.7C316.7 109.6 318.4 108.9 318.4 106.2C318.4 104.5 317 102.6 315 101.7C314.3 101.4 313.9 101.1 313.6 101.1C313.2 100.9 313 100.5 312.8 100.2C312.7 99.9001 312.6 99.6001 312.6 99.2001C312.6 97.5001 312.7 95.4001 312.8 92.7001C313 90.2001 313 87.9001 313.1 85.9001C313.2 83.2001 313.3 82.2001 313.4 81.2001C313.4 80.7001 313.5 80.4001 313.5 80.2001C313.5 77.7001 310.8 76.1001 306.4 76.1001C300.7 76.1001 296.1 78.1001 296.1 80.6001C296.1 82.2001 297.8 84.2001 300 85.0001L301.7 85.6001C302.7 85.9001 303.1 86.7001 303.1 88.4001V89.4001L302.9 97.5001C302.8 100.6 302.3 101.5 300.2 102C298.2 102.5 297.1 103.5 297.1 105C297.1 106.6 298.5 108.6 300.1 109.3C301.1 109.7 302.4 109.9 304.7 109.9H305.2L309.5 109.7ZM313.6 66.7001C313.9 66.0001 314.1 65.2001 314.1 64.4001C314.1 62.8001 313.5 61.3001 312.4 60.2001C311.6 59.4001 310.6 58.8001 309.4 58.5001C308.6 58.3001 308 58.1001 307.7 58.1001C304.6 58.1001 302.3 61.0001 302.3 64.9001C302.3 66.6001 302.9 67.6001 304.6 68.9001C306.1 70.1001 307.8 70.7001 309.2 70.7001C310.8 70.6001 312.5 69.0001 313.6 66.7001ZM352.8 91.5001C356.1 91.5001 358.3 86.9001 358.3 79.6001C358.3 75.8001 355.8 72.4001 353.1 72.4001C352.5 72.4001 351.7 72.7001 351.3 73.1001L350.6 73.8C350.3 74 350 74.1001 349.6 74.1001C349 74.1001 348.2 73.9001 347.1 73.5001C345.7 73.0001 345 72.8001 344.6 72.7001C343.6 72.4001 342.5 72.2001 341.2 72.2001C337 72.2001 332.6 74.0001 328 77.7001C324.4 80.6001 322.3 83.7001 322.3 85.9001C322.3 86.6001 322.5 87.6 323.1 88.8C323.8 90.4 324.5 91.6001 325.2 92.2001C326.6 93.6001 328.3 94.4 334.5 96.8L340.5 99.3C342.6 100.1 343.8 100.8 343.8 101.4C343.8 101.9 343.1 102.2 342.1 102.2C340 102.2 336.5 101.9 333.8 101.4C332.6 101.2 331 100.8 329.2 100.4C325.7 99.5001 324.1 99.2001 323.2 99.2001C321.3 99.2001 319.9 100.5 319.9 102.1C319.9 104.2 321.5 105.5 326.1 107.2C332.5 109.5 337.4 110.5 342.6 110.5C349.8 110.5 354.4 108.5 357.4 104.1C358.1 103.1 358.4 102.2 358.4 101.4C358.4 99.2001 356.4 97.3001 351.7 95.0001C346.8 92.5001 342.6 90.8001 338.8 89.6001C335.5 88.6001 333.8 87.5001 333.8 86.7001C333.8 85.1001 338.5 82.2001 343.6 80.6001C344.6 80.3001 345.6 80.1001 346.1 80.1001C348 80.1001 348.6 81.0001 348.6 83.6001V84.0001C348.6 84.3001 348.6 84.7001 348.7 85.1001C348.8 86.2001 348.8 87.0001 348.9 87.5001C349.1 88.1001 349.4 88.8001 349.8 89.4001C350.4 90.6001 351.7 91.5001 352.8 91.5001ZM429.5 61.2001C429.5 57.5001 427.2 55.6001 422.9 55.6001C422.3 55.6001 421 55.7 419.2 55.8L390.7 57.5001L387.9 57.6001C384.6 57.8001 383 58.9001 382.3 61.7001C381.6 64.6001 381 69.5001 381 73.2001C381 76.1001 383.1 78.4001 385.7 78.4001C387.9 78.4001 389.8 75.9001 390.2 72.2001L390.5 70.0001C390.7 67.9001 391.5 67.1001 393.6 66.7001C394.7 66.5001 395.9 66.4001 396.5 66.4001C398.1 66.4001 399.1 67.0001 399.3 67.9001C399.3 68.1001 399.4 68.6001 399.4 69.5001V70.9001L398.4 97.0001C398.4 97.4001 398.3 98.0001 398.3 98.7001C398.3 100.5 398.1 101.2 397.9 101.6C397.5 102.1 396.5 102.6 394.7 103C391.9 103.7 391 104.4 391 106C391 109.5 394.5 111.6 400.3 111.6C404.2 111.6 408.9 111.1 414.6 110.2C415.9 110 416.9 109.6 417.3 109.1C417.5 108.9 417.8 108 417.8 107.2C417.8 104.5 416.1 102.5 412.7 101.6C410.7 101 409.9 100.5 409.7 99.5001C409.5 99.1001 409.5 98.5001 409.5 97.4001V97.1001L410.3 79.2001C410.5 74.0001 410.9 70.5001 411.3 68.9001C411.9 66.9001 413.7 65.6001 415.7 65.6001C417.5 65.6001 418.3 66.2001 418.6 68.1001L418.9 69.5001L419.2 71.3C419.7 73.8 420.3 75.0001 422 76.2001C423.1 77.0001 424.2 77.4001 425.4 77.4001C426.4 77.4001 427.2 77.2 427.7 76.8C428.4 76.2 428.9 75.4001 429 74.5001C429.1 73.7001 429.2 71.2001 429.2 67.2001L429.5 61.2001ZM462.4 90.7001C462.7 88.7001 463 86.6001 463 85.1001C463 81.2001 462.2 79.5001 459.1 76.6001C455.3 73.2001 452.7 72.1001 448.8 72.1001C442.3 72.1001 435.3 75.4001 430.1 80.6001C425.3 85.5001 423.6 89.5001 423.6 95.4001C423.6 103.8 427.9 109.4 436.1 111.8C438.1 112.4 439.8 112.6 441.7 112.6C445.7 112.6 452 111.2 456.8 109.1C458.9 108.1 460.6 107 461.6 105.5C462 104.9 462.3 103.7 462.3 102.9C462.3 100.8 460.9 99.2001 459.1 99.2001C458.6 99.2001 457.7 99.4001 457 99.7001L451.8 101.8C448.3 103.2 443.2 104.1 439.2 104.1C434.7 104.1 432.7 102.9 432.7 100.2C432.7 99.0001 433.2 98.5 434.7 98.3L451.2 96.1001L453.4 95.9001C454.7 95.7001 455.5 95.7001 455.6 95.6001H457.4C460.5 95.4001 461.8 94.2001 462.4 90.7001ZM450.4 79.8C452.2 79.8 452.9 80.9 452.9 83.8C452.9 85.5 452.7 86.3 452.3 86.8C451.7 87.4 450.1 88.1001 448.6 88.2001L439.4 89.3C438.4 89.5 437.8 89.5001 437.4 89.5001C436.9 89.5001 436.6 89.3001 436.6 88.9001C436.6 88.0001 438.3 86.0001 440.3 84.7001C444.6 81.6001 448.4 79.8 450.4 79.8ZM503.8 90.7001C504.1 88.7001 504.4 86.6001 504.4 85.1001C504.4 81.2001 503.6 79.5001 500.5 76.6001C496.7 73.2001 494.1 72.1001 490.2 72.1001C483.7 72.1001 476.7 75.4001 471.5 80.6001C466.7 85.5001 465 89.5001 465 95.4001C465 103.8 469.3 109.4 477.5 111.8C479.5 112.4 481.2 112.6 483.1 112.6C487.1 112.6 493.4 111.2 498.2 109.1C500.3 108.1 502 107 503 105.5C503.4 104.9 503.7 103.7 503.7 102.9C503.7 100.8 502.3 99.2001 500.5 99.2001C500 99.2001 499.1 99.4001 498.4 99.7001L493.2 101.8C489.7 103.2 484.6 104.1 480.6 104.1C476.1 104.1 474.1 102.9 474.1 100.2C474.1 99.0001 474.6 98.5 476.1 98.3L492.6 96.1001L494.8 95.9001C496.2 95.7001 496.9 95.7001 497 95.6001H498.8C502 95.4001 503.2 94.2001 503.8 90.7001ZM491.9 79.8C493.7 79.8 494.4 80.9 494.4 83.8C494.4 85.5 494.2 86.3 493.8 86.8C493.2 87.4 491.6 88.1001 490.1 88.2001L480.9 89.3C479.9 89.5 479.3 89.5001 478.9 89.5001C478.4 89.5001 478.1 89.3001 478.1 88.9001C478.1 88.0001 479.8 86.0001 481.8 84.7001C486.1 81.6001 489.8 79.8 491.9 79.8ZM535.3 107.9C538.2 106 539.8 103.8 539.8 101.9C539.8 100.2 538.2 98.8 536.4 98.8C535.6 98.8 535 99.1001 533.3 100.2C530.8 101.8 528.8 102.6 527.7 102.6C525.6 102.6 524.6 101.2 524.6 97.7001C524.6 96.5001 524.7 95.2001 524.8 93.9001L525.5 87.2001C525.7 85.3001 525.9 85.1001 527.7 84.7001L529.1 84.5001C529.7 84.4001 530.5 84.3001 531.4 84.2001C536.3 83.6001 538.3 82.5001 538.3 80.5001C538.3 79.6001 537.6 78.4001 536.6 77.2001C535.2 75.8001 534.5 75.5001 531.4 75.5001H530C529.4 75.6001 528.9 75.6001 528.5 75.6001C527 75.6001 526.2 75.0001 526.2 73.7001C526.2 73.3001 526.3 72.5001 526.4 71.4001C526.6 70.4001 526.6 68.9001 526.6 68.1001C526.6 65.5001 523.7 63.4001 519.8 63.4001C516.9 63.4001 516.1 65.5001 515.7 73.4001C515.5 75.9001 514.8 76.9001 513.3 77.1001L511 77.0001C507.8 77.2001 505.8 78.4001 505.8 80.2001C505.8 82.8001 508.4 85.5001 511.4 86.0001C512 86.1001 512.5 86.2001 513.1 86.2001C514.5 86.3001 514.8 86.6001 514.8 88.0001C514.8 88.7001 514.7 89.8001 514.6 91.2001C514.5 91.8001 514.5 92.2001 514.5 92.7001C514.5 96.3001 514.8 100.3 515.4 102.7C515.9 104.6 516.8 106.2 517.9 107.3C520 109.2 523.9 110.6 527 110.6C529.8 110.6 532.7 109.7 535.3 107.9ZM580.2 90.7001C580.5 88.7001 580.8 86.6001 580.8 85.1001C580.8 81.2001 580 79.5001 576.9 76.6001C573.1 73.2001 570.5 72.1001 566.6 72.1001C560.1 72.1001 553.1 75.4001 547.9 80.6001C543.1 85.5001 541.4 89.5001 541.4 95.4001C541.4 103.8 545.7 109.4 553.9 111.8C555.9 112.4 557.6 112.6 559.5 112.6C563.5 112.6 569.8 111.2 574.6 109.1C576.7 108.1 578.4 107 579.4 105.5C579.8 104.9 580.1 103.7 580.1 102.9C580.1 100.8 578.7 99.2001 576.9 99.2001C576.4 99.2001 575.5 99.4001 574.8 99.7001L569.6 101.8C566.1 103.2 561 104.1 557 104.1C552.5 104.1 550.5 102.9 550.5 100.2C550.5 99.0001 551 98.5 552.5 98.3L569 96.1001L571.2 95.9001C572.6 95.7001 573.3 95.7001 573.4 95.6001H575.2C578.4 95.4001 579.6 94.2001 580.2 90.7001ZM568.3 79.8C570.1 79.8 570.8 80.9 570.8 83.8C570.8 85.5 570.6 86.3 570.2 86.8C569.6 87.4 568 88.1001 566.5 88.2001L557.3 89.3C556.3 89.5 555.7 89.5001 555.3 89.5001C554.8 89.5001 554.5 89.3001 554.5 88.9001C554.5 88.0001 556.2 86.0001 558.2 84.7001C562.5 81.6001 566.2 79.8 568.3 79.8ZM616 84.3C616.2 83.4 616.4 82.4001 616.4 81.6001C616.4 78.9001 614.3 76.5 610.3 74.8C609.2 74.3 608.2 74.1001 607.3 74.1001C605.4 74.1001 602.4 75.3 600.5 76.8C600.1 77.1 599.8 77.3 599.5 77.3C598.9 77.3 598.6 76.9 598.2 75.8C597.6 74 595.5 73.2001 591.4 73.2001C586.5 73.2001 582.8 74.8001 582.8 76.9001C582.8 78.7001 584.9 81.2001 587.3 81.9001C588.3 82.3001 588.7 82.5001 588.9 83.1001C589 83.3001 589.1 83.6 589.1 83.8V84.9001L589.3 96.9001V97.3C589.3 101.1 588.8 101.8 586.4 102.1C584.3 102.4 582.7 103.8 582.7 105.5C582.7 108.2 586 110.3 590.3 110.3C594.8 110.3 599.7 109.7 602.5 108.7C603.9 108.2 605 107 605 105.7C605 104.2 603.6 102.9 600.5 101.6C599.6 101.3 599.3 101 599.1 100.6C599 100.4 598.9 100 598.9 99.6001C598.8 99.0001 598.8 98.6 598.8 98.3C598.8 95.8 599.8 91.1 601.2 86.8C602.1 84 604 81.6001 605.2 81.6001C605.8 81.6001 606.1 81.9001 606.1 82.6001C606.1 82.8001 606 83.2001 606 83.7001C605.8 85.0001 605.7 85.9001 605.7 86.7001C605.7 90.2001 607.4 92.5001 610 92.5001C612.4 92.4001 614.9 88.9 616 84.3ZM611.9 101C609.4 101 607.4 103 607.4 105.5C607.4 108 609.4 110 611.9 110C614.4 110 616.4 108 616.4 105.5C616.3 103 614.4 101 611.9 101ZM611.9 101.7C613.9 101.7 615.5 103.4 615.5 105.5C615.5 107.6 613.9 109.3 611.9 109.3C609.9 109.3 608.3 107.6 608.3 105.5C608.3 103.4 609.9 101.7 611.9 101.7ZM611 105.9H611.6C612.2 105.9 612.6 106.1 612.7 106.8C612.8 107.5 612.9 107.9 613 108.1H613.8C613.7 107.9 613.6 107.6 613.5 106.9C613.4 106.2 613.1 105.8 612.7 105.7C613.2 105.5 613.7 105.1 613.7 104.5C613.7 104 613.5 103.7 613.2 103.5C612.9 103.3 612.4 103.1 611.6 103.1C611 103.1 610.6 103.2 610.2 103.2V108.2H611V105.9ZM611 103.6C611.1 103.6 611.3 103.6 611.6 103.6C612.5 103.6 612.8 104 612.8 104.5C612.8 105.1 612.2 105.4 611.6 105.4H611V103.6Z" fill="#EB0029"/>
</svg>
