<svg width="480" height="104" viewBox="0 0 480 104" fill="none" xmlns="http://www.w3.org/2000/svg">
<path d="M190.236 58.4551H195.14V77.653H220.248V58.4551H225.153V102.087H220.248V82.3069H195.14V102.087H190.236V58.4551Z" fill="#53565A"/>
<path d="M397.639 58.4551H402.545V77.653H427.653V58.4551H432.556V102.087H427.653V82.3069H402.545V102.087H397.639V58.4551Z" fill="#53565A"/>
<path d="M236.25 58.4551H267.665V62.8763H241.155V77.653H264.861V82.0742H241.155V97.549H268.015V101.97H236.25V58.4551Z" fill="#53565A"/>
<path d="M294.284 58.4551H298.841L318.693 102.087H313.437L308.3 90.6842H284.593L279.453 102.087H274.432L294.284 58.4551ZM306.429 86.1466L296.505 64.04L286.577 86.1466H306.429Z" fill="#53565A"/>
<path d="M326.405 58.4551H331.308V97.549H355.717V102.087H326.405V58.4551Z" fill="#53565A"/>
<path d="M368.911 62.9928H354.311V58.4551H388.413V62.9928H373.814V102.087H368.911V62.9928Z" fill="#53565A"/>
<path d="M237.298 23.0852V22.9689C237.298 10.5193 247.34 0.396729 260.77 0.396729C274.201 0.396729 284.128 10.4029 284.128 22.7362V22.8525C284.128 35.302 274.085 45.3084 260.655 45.3084C247.224 45.4246 237.298 35.4185 237.298 23.0852ZM271.749 23.0852V22.9689C271.749 16.6859 267.195 11.3337 260.537 11.3337C253.999 11.3337 249.561 16.6859 249.561 22.8525V22.9689C249.561 29.2518 254.114 34.604 260.655 34.604C267.311 34.604 271.749 29.2518 271.749 23.0852Z" fill="#53565A"/>
<path d="M201.563 19.7105L204.249 23.7828L219.781 43.6789C220.248 44.2605 221.183 44.7259 221.883 44.7259H229.824C230.525 44.7259 231.109 44.1443 231.109 43.4462C231.109 42.7479 231.109 42.1664 231.109 42.1664V2.72321C231.109 2.02511 230.525 1.44336 229.824 1.44336H219.197V18.896L219.664 25.2953L216.978 21.3394L202.147 2.37417C201.797 1.90876 200.863 1.44336 200.162 1.44336H191.52C190.819 1.44336 190.236 1.90876 190.236 2.37417V43.4462C190.236 44.1443 190.819 44.7259 191.52 44.7259H202.147V26.2262L201.563 19.7105Z" fill="#53565A"/>
<path d="M387.943 19.7105L390.629 23.7828L406.161 43.6789C406.629 44.2605 407.562 44.7259 408.263 44.7259H416.204C416.906 44.7259 417.489 44.1443 417.489 43.4462C417.489 42.7479 417.489 42.1664 417.489 42.1664V2.72321C417.489 2.02511 416.906 1.44336 416.204 1.44336H405.578V18.896L406.043 25.2953L403.358 21.3394L388.527 2.37417C388.059 1.90876 387.242 1.44336 386.543 1.44336H377.9C377.199 1.44336 376.615 1.90876 376.615 2.37417V43.4462C376.615 44.1443 377.199 44.7259 377.9 44.7259H388.527V26.2262L387.943 19.7105Z" fill="#53565A"/>
<path d="M317.994 1.44336C317.292 1.44336 316.475 2.02511 316.244 2.60687L309.585 21.3394L306.9 29.0187L304.214 21.4558L297.44 2.72323C297.206 2.02511 296.389 1.55971 295.69 1.55971H283.894L301.529 44.8423H312.039L329.671 1.55971H317.994V1.44336Z" fill="#53565A"/>
<path d="M342.752 1.44336L324.182 44.7259H335.744C336.445 44.7259 337.263 44.1443 337.497 43.5625L340.182 37.0468H356.766L359.451 43.5625C359.685 44.2605 360.502 44.7259 361.201 44.7259H372.763L354.077 1.44336H342.752ZM343.685 27.7388L347.306 18.547L348.473 14.9401L349.642 18.547L353.26 27.855H343.685V27.7388Z" fill="#53565A"/>
<path d="M437.342 44.7259H449.371V11.915H461.167C461.866 11.915 462.449 11.3332 462.449 10.6351V1.44336H424.379V10.6351C424.379 11.3332 424.965 11.915 425.664 11.915H437.342V44.7259Z" fill="#53565A"/>
<path d="M94.0084 1.44336H69.7181V55.3141L71.2362 64.7383L70.4187 64.8548L67.7327 57.0593L39.8223 12.4967C34.3335 3.30497 32.1147 1.44336 23.1226 1.44336H3.38663C1.51815 1.44336 0 2.95592 0 4.81755V98.5965C0 100.458 1.51815 101.971 3.38663 101.971H27.2098V46.4714L25.9254 38.4429L26.7426 38.3267L28.9615 44.0278L61.5434 92.779C66.7985 101.156 69.0174 102.087 76.9585 102.087H94.0084C95.8769 102.087 97.3949 100.574 97.3949 98.713V4.81755C97.3949 2.95592 95.8769 1.44336 94.0084 1.44336Z" fill="#512D6D"/>
<path d="M126.822 1.44336V36.2323C126.822 38.094 128.34 39.6066 130.209 39.6066H157.302C159.171 39.6066 160.689 38.094 160.689 36.2323V1.44336H126.822Z" fill="#512D6D"/>
<path d="M157.302 64.9707H130.209C128.34 64.9707 126.822 66.4833 126.822 68.345V102.087H160.689V68.345C160.689 66.4833 159.171 64.9707 157.302 64.9707Z" fill="#512D6D"/>
<path d="M477.75 10.6349C476.699 11.7984 475.296 12.2638 473.78 12.2638C472.261 12.2638 470.858 11.6821 469.809 10.6349C468.758 9.58777 468.172 8.19155 468.172 6.67898C468.172 5.1664 468.758 3.7702 469.809 2.72303C470.858 1.67587 472.261 1.09412 473.78 1.09412C475.296 1.09412 476.699 1.67587 477.75 2.72303C478.801 3.7702 479.385 5.1664 479.385 6.67898C479.385 8.19155 478.917 9.58777 477.75 10.6349ZM470.274 3.18844C469.342 4.11925 468.874 5.28276 468.874 6.67898C468.874 8.07518 469.342 9.23869 470.274 10.1695C471.21 11.1003 472.377 11.5657 473.78 11.5657C475.18 11.5657 476.231 11.1003 477.282 10.1695C478.215 9.23869 478.683 8.07518 478.683 6.67898C478.683 5.28276 478.215 4.23559 477.282 3.18844C476.347 2.25763 475.18 1.79222 473.78 1.79222C472.377 1.79222 471.21 2.25763 470.274 3.18844ZM473.662 3.53749C474.479 3.53749 474.946 3.65384 475.414 3.7702C476.113 4.00291 476.347 4.58467 476.347 5.39911C476.347 5.98086 476.113 6.32991 475.764 6.67898C475.53 6.79533 475.296 6.91167 474.831 7.02803C475.296 7.14438 475.648 7.26074 475.882 7.60979C476.113 7.95884 476.231 8.30789 476.231 8.5406V9.00601C476.231 9.12235 476.231 9.35506 476.231 9.4714C476.231 9.58777 476.231 9.70411 476.347 9.82045V9.93682H475.296C475.296 9.93682 475.296 9.93682 475.296 9.82045C475.296 9.82045 475.296 9.82045 475.296 9.70411V9.4714V8.88964C475.296 8.19155 475.062 7.72613 474.713 7.49342C474.479 7.37708 474.129 7.26074 473.546 7.26074H472.729V9.70411H471.678V3.53749H473.662ZM474.831 4.58467C474.597 4.4683 474.129 4.35196 473.546 4.35196H472.611V6.56262H473.546C474.011 6.56262 474.363 6.56262 474.597 6.44628C475.062 6.32991 475.296 5.98086 475.296 5.51547C475.296 4.93371 475.062 4.70101 474.831 4.58467Z" fill="#53565A"/>
</svg>
