<svg width="121" height="51" viewBox="0 0 121 51" fill="none" xmlns="http://www.w3.org/2000/svg">
<path d="M12.04 22.9403H0L0.7 19.6703H12.74C13.64 19.6703 14.54 18.9403 14.73 18.0303C14.9 17.2403 14.48 16.5603 13.73 16.4203L4.75 14.6903C2.51 14.2603 1.06 11.9903 1.53 9.86032C2.15 7.03032 4.91 4.95032 7.72 4.95032H19.82L19.12 8.22032H7.02C6.12 8.22032 5.23 8.95032 5.03 9.86032C4.86 10.6503 5.28 11.3303 6.03 11.4703L15.01 13.2003C17.25 13.6303 18.72 15.7003 18.22 18.0703C17.65 20.7803 14.75 22.9403 12.05 22.9403" fill="#EE3224"/>
<path d="M22.5098 19.6703H30.8998C32.5898 19.6703 34.2498 18.3003 34.6098 16.6103L35.7398 11.2803C36.0998 9.59032 35.0198 8.22032 33.3298 8.22032H27.9998C26.3098 8.22032 24.6498 9.59032 24.2898 11.2803L22.5098 19.6703ZM20.7798 27.8303H17.5098L21.0298 11.2803C21.7698 7.79032 25.2198 4.95032 28.7098 4.95032H34.0398C37.5298 4.95032 39.7698 7.79032 39.0298 11.2803L37.8998 16.6103C37.1598 20.1003 33.7098 22.9403 30.2198 22.9403H23.6498C22.5898 22.9403 21.6798 23.6803 21.4598 24.7103L20.7998 27.8303H20.7798Z" fill="#EE3224"/>
<path d="M86.0802 8.22029C84.3902 8.22029 82.7302 9.59029 82.3702 11.2803L81.2402 16.6103C80.8802 18.3003 81.9602 19.6703 83.6502 19.6703H88.9802C90.6702 19.6703 92.3302 18.3003 92.6902 16.6103L94.4702 8.22029H86.0802ZM88.2802 22.9403H82.9502C79.4602 22.9403 77.2202 20.1003 77.9602 16.6103L79.0902 11.2803C79.8302 7.79029 83.2802 4.95029 86.7702 4.95029H93.3402C94.4002 4.95029 95.3102 4.21029 95.5302 3.17029L96.1902 0.050293H99.4602L95.9402 16.6003C95.2002 20.0903 91.7502 22.9303 88.2602 22.9303" fill="#EE3224"/>
<path d="M55.1101 11.2603L54.8901 12.3003H43.4401L43.6601 11.2903C44.0201 9.59031 45.6901 8.21031 47.3901 8.21031H52.7201C53.5201 8.21031 54.2101 8.52031 54.6601 9.08031C55.1301 9.66031 55.2901 10.4303 55.1101 11.2603ZM57.4301 6.75031C56.4801 5.58031 55.0401 4.94031 53.3801 4.94031H48.0501C44.5601 4.94031 41.1301 7.77031 40.3901 11.2603L39.2601 16.5903C38.8901 18.3103 39.2301 19.9203 40.2101 21.1203C41.1601 22.2903 42.6001 22.9303 44.2601 22.9303H55.9801L56.6801 19.6603H44.9301C44.1301 19.6603 43.4401 19.3503 42.9901 18.7903C42.5201 18.2103 42.3601 17.4403 42.5401 16.6103L42.7601 15.5703H56.3101C56.9901 15.5703 57.5901 15.0903 57.7301 14.4203L58.4001 11.2803C58.7701 9.56031 58.4301 7.95031 57.4501 6.75031" fill="#EE3224"/>
<path d="M74.47 11.2603L74.25 12.3003H62.8L63.02 11.2903C63.38 9.59031 65.05 8.21031 66.75 8.21031H72.08C72.88 8.21031 73.57 8.52031 74.02 9.08031C74.49 9.66031 74.65 10.4303 74.47 11.2603ZM76.79 6.75031C75.84 5.58031 74.4 4.94031 72.74 4.94031H67.41C63.92 4.94031 60.49 7.77031 59.75 11.2603L58.62 16.5903C58.25 18.3103 58.59 19.9203 59.57 21.1203C60.52 22.2903 61.96 22.9303 63.62 22.9303H75.34L76.04 19.6603H64.29C63.49 19.6603 62.8 19.3503 62.35 18.7903C61.88 18.2103 61.72 17.4403 61.9 16.6103L62.12 15.5703H75.67C76.35 15.5703 76.94 15.0903 77.09 14.4203L77.76 11.2803C78.13 9.56031 77.79 7.95031 76.81 6.75031" fill="#EE3224"/>
<path d="M105.55 8.22032C103.84 8.22032 102.15 9.61032 101.79 11.3203L100.67 16.5703C100.31 18.2803 101.4 19.6703 103.11 19.6703H108.39C110.1 19.6703 111.78 18.2803 112.15 16.5703L113.27 11.3203C113.63 9.61032 112.54 8.22032 110.83 8.22032H105.55ZM107.75 22.9403H102.37C98.8798 22.9403 96.6498 20.1003 97.3898 16.6203L98.5298 11.2703C99.2698 7.78032 102.71 4.95032 106.2 4.95032H111.58C115.07 4.95032 117.3 7.79032 116.56 11.2703L115.42 16.6203C114.68 20.1003 111.24 22.9403 107.75 22.9403Z" fill="#EE3224"/>
<path d="M22.5098 19.6703H30.8998C32.5898 19.6703 34.2498 18.3003 34.6098 16.6103L35.7398 11.2803C36.0998 9.59032 35.0198 8.22032 33.3298 8.22032H27.9998C26.3098 8.22032 24.6498 9.59032 24.2898 11.2803L22.5098 19.6703ZM20.7798 27.8303H17.5098L21.0298 11.2803C21.7698 7.79032 25.2198 4.95032 28.7098 4.95032H34.0398C37.5298 4.95032 39.7698 7.79032 39.0298 11.2803L37.8998 16.6103C37.1598 20.1003 33.7098 22.9403 30.2198 22.9403H23.6498C22.5898 22.9403 21.6798 23.6803 21.4598 24.7103L20.7998 27.8303H20.7798Z" fill="#EE3224"/>
<path d="M86.0802 8.22029C84.3902 8.22029 82.7302 9.59029 82.3702 11.2803L81.2402 16.6103C80.8802 18.3003 81.9602 19.6703 83.6502 19.6703H88.9802C90.6702 19.6703 92.3302 18.3003 92.6902 16.6103L94.4702 8.22029H86.0802ZM88.2802 22.9403H82.9502C79.4602 22.9403 77.2202 20.1003 77.9602 16.6103L79.0902 11.2803C79.8302 7.79029 83.2802 4.95029 86.7702 4.95029H93.3402C94.4002 4.95029 95.3102 4.21029 95.5302 3.17029L96.1902 0.050293H99.4602L95.9402 16.6003C95.2002 20.0903 91.7502 22.9303 88.2602 22.9303" fill="#EE3224"/>
<path d="M55.1101 11.2603L54.8901 12.3003H43.4401L43.6601 11.2903C44.0201 9.59031 45.6901 8.21031 47.3901 8.21031H52.7201C53.5201 8.21031 54.2101 8.52031 54.6601 9.08031C55.1301 9.66031 55.2901 10.4303 55.1101 11.2603ZM57.4301 6.75031C56.4801 5.58031 55.0401 4.94031 53.3801 4.94031H48.0501C44.5601 4.94031 41.1301 7.77031 40.3901 11.2603L39.2601 16.5903C38.8901 18.3103 39.2301 19.9203 40.2101 21.1203C41.1601 22.2903 42.6001 22.9303 44.2601 22.9303H55.9801L56.6801 19.6603H44.9301C44.1301 19.6603 43.4401 19.3503 42.9901 18.7903C42.5201 18.2103 42.3601 17.4403 42.5401 16.6103L42.7601 15.5703H56.3101C56.9901 15.5703 57.5901 15.0903 57.7301 14.4203L58.4001 11.2803C58.7701 9.56031 58.4301 7.95031 57.4501 6.75031" fill="#EE3224"/>
<path d="M74.47 11.2603L74.25 12.3003H62.8L63.02 11.2903C63.38 9.59031 65.05 8.21031 66.75 8.21031H72.08C72.88 8.21031 73.57 8.52031 74.02 9.08031C74.49 9.66031 74.65 10.4303 74.47 11.2603ZM76.79 6.75031C75.84 5.58031 74.4 4.94031 72.74 4.94031H67.41C63.92 4.94031 60.49 7.77031 59.75 11.2603L58.62 16.5903C58.25 18.3103 58.59 19.9203 59.57 21.1203C60.52 22.2903 61.96 22.9303 63.62 22.9303H75.34L76.04 19.6603H64.29C63.49 19.6603 62.8 19.3503 62.35 18.7903C61.88 18.2103 61.72 17.4403 61.9 16.6103L62.12 15.5703H75.67C76.35 15.5703 76.94 15.0903 77.09 14.4203L77.76 11.2803C78.13 9.56031 77.79 7.95031 76.81 6.75031" fill="#EE3224"/>
<path d="M105.55 8.22032C103.84 8.22032 102.15 9.61032 101.79 11.3203L100.67 16.5703C100.31 18.2803 101.4 19.6703 103.11 19.6703H108.39C110.1 19.6703 111.78 18.2803 112.15 16.5703L113.27 11.3203C113.63 9.61032 112.54 8.22032 110.83 8.22032H105.55ZM107.75 22.9403H102.37C98.8798 22.9403 96.6498 20.1003 97.3898 16.6203L98.5298 11.2703C99.2698 7.78032 102.71 4.95032 106.2 4.95032H111.58C115.07 4.95032 117.3 7.79032 116.56 11.2703L115.42 16.6203C114.68 20.1003 111.24 22.9403 107.75 22.9403Z" fill="#EE3224"/>
<path d="M22.5098 19.6703H30.8998C32.5898 19.6703 34.2498 18.3003 34.6098 16.6103L35.7398 11.2803C36.0998 9.59032 35.0198 8.22032 33.3298 8.22032H27.9998C26.3098 8.22032 24.6498 9.59032 24.2898 11.2803L22.5098 19.6703ZM20.7798 27.8303H17.5098L21.0298 11.2803C21.7698 7.79032 25.2198 4.95032 28.7098 4.95032H34.0398C37.5298 4.95032 39.7698 7.79032 39.0298 11.2803L37.8998 16.6103C37.1598 20.1003 33.7098 22.9403 30.2198 22.9403H23.6498C22.5898 22.9403 21.6798 23.6803 21.4598 24.7103L20.7998 27.8303H20.7798Z" fill="#EE3224"/>
<path d="M86.0802 8.22029C84.3902 8.22029 82.7302 9.59029 82.3702 11.2803L81.2402 16.6103C80.8802 18.3003 81.9602 19.6703 83.6502 19.6703H88.9802C90.6702 19.6703 92.3302 18.3003 92.6902 16.6103L94.4702 8.22029H86.0802ZM88.2802 22.9403H82.9502C79.4602 22.9403 77.2202 20.1003 77.9602 16.6103L79.0902 11.2803C79.8302 7.79029 83.2802 4.95029 86.7702 4.95029H93.3402C94.4002 4.95029 95.3102 4.21029 95.5302 3.17029L96.1902 0.050293H99.4602L95.9402 16.6003C95.2002 20.0903 91.7502 22.9303 88.2602 22.9303" fill="#EE3224"/>
<path d="M55.1101 11.2603L54.8901 12.3003H43.4401L43.6601 11.2903C44.0201 9.59031 45.6901 8.21031 47.3901 8.21031H52.7201C53.5201 8.21031 54.2101 8.52031 54.6601 9.08031C55.1301 9.66031 55.2901 10.4303 55.1101 11.2603ZM57.4301 6.75031C56.4801 5.58031 55.0401 4.94031 53.3801 4.94031H48.0501C44.5601 4.94031 41.1301 7.77031 40.3901 11.2603L39.2601 16.5903C38.8901 18.3103 39.2301 19.9203 40.2101 21.1203C41.1601 22.2903 42.6001 22.9303 44.2601 22.9303H55.9801L56.6801 19.6603H44.9301C44.1301 19.6603 43.4401 19.3503 42.9901 18.7903C42.5201 18.2103 42.3601 17.4403 42.5401 16.6103L42.7601 15.5703H56.3101C56.9901 15.5703 57.5901 15.0903 57.7301 14.4203L58.4001 11.2803C58.7701 9.56031 58.4301 7.95031 57.4501 6.75031" fill="#EE3224"/>
<path d="M74.47 11.2603L74.25 12.3003H62.8L63.02 11.2903C63.38 9.59031 65.05 8.21031 66.75 8.21031H72.08C72.88 8.21031 73.57 8.52031 74.02 9.08031C74.49 9.66031 74.65 10.4303 74.47 11.2603ZM76.79 6.75031C75.84 5.58031 74.4 4.94031 72.74 4.94031H67.41C63.92 4.94031 60.49 7.77031 59.75 11.2603L58.62 16.5903C58.25 18.3103 58.59 19.9203 59.57 21.1203C60.52 22.2903 61.96 22.9303 63.62 22.9303H75.34L76.04 19.6603H64.29C63.49 19.6603 62.8 19.3503 62.35 18.7903C61.88 18.2103 61.72 17.4403 61.9 16.6103L62.12 15.5703H75.67C76.35 15.5703 76.94 15.0903 77.09 14.4203L77.76 11.2803C78.13 9.56031 77.79 7.95031 76.81 6.75031" fill="#EE3224"/>
<path d="M105.55 8.22032C103.84 8.22032 102.15 9.61032 101.79 11.3203L100.67 16.5703C100.31 18.2803 101.4 19.6703 103.11 19.6703H108.39C110.1 19.6703 111.78 18.2803 112.15 16.5703L113.27 11.3203C113.63 9.61032 112.54 8.22032 110.83 8.22032H105.55ZM107.75 22.9403H102.37C98.8798 22.9403 96.6498 20.1003 97.3898 16.6203L98.5298 11.2703C99.2698 7.78032 102.71 4.95032 106.2 4.95032H111.58C115.07 4.95032 117.3 7.79032 116.56 11.2703L115.42 16.6203C114.68 20.1003 111.24 22.9403 107.75 22.9403Z" fill="#EE3224"/>
<path d="M19.3502 48.4103L49.4202 33.0703C49.6602 32.9503 49.6302 32.5903 49.3502 32.5103L31.3602 28.0203C30.6102 27.8203 30.7602 26.9903 31.3602 26.9903H82.3002C84.1602 26.9903 84.8902 29.0003 82.3002 29.8403L19.5702 50.1203C18.5202 50.4603 17.5702 49.3003 19.3402 48.4003" fill="#EE3224"/>
<path d="M119.03 1.9503C119.21 1.9503 119.33 1.8503 119.33 1.6803C119.33 1.5103 119.22 1.4203 119.03 1.4203H118.51V1.9503H119.03ZM118.07 0.990304H119.06C119.49 0.990304 119.77 1.2703 119.77 1.6803C119.77 1.9703 119.63 2.2103 119.38 2.3103L119.8 3.1803H119.31L118.93 2.3703H118.51V3.1803H118.07V0.990304ZM120.48 2.0903C120.5 1.2003 119.73 0.420304 118.83 0.440304C117.94 0.420304 117.17 1.2003 117.19 2.0903C117.17 2.9803 117.94 3.7603 118.83 3.7403C119.73 3.7603 120.5 2.9703 120.48 2.0903ZM120.92 2.0903C120.94 3.2203 119.96 4.2003 118.83 4.1803C117.7 4.2003 116.72 3.2203 116.74 2.0903C116.72 0.960304 117.7 -0.0196961 118.83 0.000303881C119.96 -0.0196961 120.94 0.950304 120.92 2.0903Z" fill="#EE3224"/>
</svg>
