<svg width="350" height="148" viewBox="0 0 350 148" fill="none" xmlns="http://www.w3.org/2000/svg">
<path d="M34.8264 66.5718H0L2.02479 57.0824H36.8512C39.4545 57.0824 42.0578 54.964 42.6074 52.3232C43.0992 50.0306 41.8843 48.0573 39.7149 47.651L13.7397 42.6306C7.26033 41.3828 3.06612 34.7953 4.42562 28.6142C6.21901 20.4017 14.2025 14.3656 22.3306 14.3656H57.3306L55.3058 23.855H20.3058C17.7025 23.855 15.1281 25.9734 14.5496 28.6142C14.0579 30.9067 15.2727 32.8801 17.4421 33.2863L43.4174 38.3067C49.8967 39.5546 54.1488 45.5616 52.7025 52.4393C51.0537 60.3036 42.6653 66.5718 34.8554 66.5718" fill="#EE3224"/>
<path d="M65.111 57.0824H89.3796C94.268 57.0824 99.0697 53.1067 100.111 48.2024L103.38 32.735C104.421 27.8307 101.297 23.855 96.4085 23.855H80.9912C76.1027 23.855 71.3011 27.8307 70.2598 32.735L65.111 57.0824ZM60.1069 80.7624H50.6482L60.83 32.735C62.9705 22.6072 72.9498 14.3656 83.0449 14.3656H98.4622C108.557 14.3656 115.037 22.6072 112.896 32.735L109.628 48.2024C107.487 58.3303 97.5077 66.5718 87.4127 66.5718H68.4085C65.3424 66.5718 62.7102 68.7193 62.0738 71.7083L60.1647 80.7624H60.1069Z" fill="#EE3224"/>
<path d="M248.992 23.855C244.104 23.855 239.302 27.8307 238.261 32.735L234.992 48.2025C233.951 53.1068 237.075 57.0825 241.963 57.0825H257.381C262.269 57.0825 267.071 53.1068 268.112 48.2025L273.261 23.855H248.992ZM255.356 66.5719H239.939C229.844 66.5719 223.364 58.3303 225.505 48.2025L228.773 32.735C230.914 22.6072 240.893 14.3656 250.988 14.3656H269.992C273.058 14.3656 275.691 12.2181 276.327 9.20011L278.236 0.145996H287.695L277.513 48.1735C275.373 58.3013 265.393 66.5429 255.298 66.5429" fill="#EE3224"/>
<path d="M159.409 32.6769L158.773 35.6949H125.653L126.29 32.764C127.331 27.8307 132.162 23.826 137.079 23.826H152.496C154.81 23.826 156.806 24.7256 158.108 26.3507C159.467 28.0338 159.93 30.2683 159.409 32.6769ZM166.12 19.5891C163.372 16.1938 159.207 14.3365 154.405 14.3365H138.988C128.893 14.3365 118.971 22.5491 116.831 32.6769L113.562 48.1444C112.492 53.1357 113.476 57.8079 116.31 61.2902C119.058 64.6855 123.223 66.5428 128.025 66.5428H161.926L163.951 57.0534H129.963C127.649 57.0534 125.653 56.1538 124.352 54.5287C122.992 52.8455 122.529 50.611 123.05 48.2024L123.686 45.1844H162.881C164.847 45.1844 166.583 43.7914 166.988 41.8471L168.926 32.735C169.996 27.7436 169.013 23.0714 166.178 19.5891" fill="#EE3224"/>
<path d="M215.409 32.6769L214.773 35.6949H181.653L182.289 32.764C183.331 27.8307 188.161 23.826 193.079 23.826H208.496C210.81 23.826 212.806 24.7256 214.108 26.3507C215.467 28.0338 215.93 30.2683 215.409 32.6769ZM222.12 19.5891C219.372 16.1938 215.207 14.3365 210.405 14.3365H194.988C184.893 14.3365 174.971 22.5491 172.831 32.6769L169.562 48.1444C168.492 53.1357 169.475 57.8079 172.31 61.2902C175.058 64.6855 179.223 66.5428 184.025 66.5428H217.926L219.951 57.0534H185.963C183.649 57.0534 181.653 56.1538 180.351 54.5287C178.992 52.8455 178.529 50.611 179.05 48.2024L179.686 45.1844H218.88C220.847 45.1844 222.554 43.7914 222.988 41.8471L224.926 32.735C225.996 27.7436 225.013 23.0714 222.178 19.5891" fill="#EE3224"/>
<path d="M305.31 23.855C300.364 23.855 295.475 27.8887 294.434 32.851L291.194 48.0863C290.153 53.0487 293.306 57.0824 298.252 57.0824H313.525C318.471 57.0824 323.331 53.0487 324.401 48.0863L327.64 32.851C328.682 27.8887 325.529 23.855 320.583 23.855H305.31ZM311.674 66.5718H296.112C286.016 66.5718 279.566 58.3303 281.706 48.2314L285.004 32.7059C287.144 22.5782 297.095 14.3656 307.19 14.3656H322.752C332.847 14.3656 339.297 22.6072 337.157 32.7059L333.859 48.2314C331.719 58.3303 321.769 66.5718 311.674 66.5718Z" fill="#EE3224"/>
<path d="M65.111 57.0824H89.3796C94.268 57.0824 99.0697 53.1067 100.111 48.2024L103.38 32.735C104.421 27.8307 101.297 23.855 96.4085 23.855H80.9912C76.1027 23.855 71.3011 27.8307 70.2598 32.735L65.111 57.0824ZM60.1069 80.7624H50.6482L60.83 32.735C62.9705 22.6072 72.9498 14.3656 83.0449 14.3656H98.4622C108.557 14.3656 115.037 22.6072 112.896 32.735L109.628 48.2024C107.487 58.3303 97.5077 66.5718 87.4127 66.5718H68.4085C65.3424 66.5718 62.7102 68.7193 62.0738 71.7083L60.1647 80.7624H60.1069Z" fill="#EE3224"/>
<path d="M248.992 23.855C244.104 23.855 239.302 27.8307 238.261 32.735L234.992 48.2025C233.951 53.1068 237.075 57.0825 241.963 57.0825H257.381C262.269 57.0825 267.071 53.1068 268.112 48.2025L273.261 23.855H248.992ZM255.356 66.5719H239.939C229.844 66.5719 223.364 58.3303 225.505 48.2025L228.773 32.735C230.914 22.6072 240.893 14.3656 250.988 14.3656H269.992C273.058 14.3656 275.691 12.2181 276.327 9.20011L278.236 0.145996H287.695L277.513 48.1735C275.373 58.3013 265.393 66.5429 255.298 66.5429" fill="#EE3224"/>
<path d="M159.409 32.6769L158.773 35.6949H125.653L126.29 32.764C127.331 27.8307 132.162 23.826 137.079 23.826H152.496C154.81 23.826 156.806 24.7256 158.108 26.3507C159.467 28.0338 159.93 30.2683 159.409 32.6769ZM166.12 19.5891C163.372 16.1938 159.207 14.3365 154.405 14.3365H138.988C128.893 14.3365 118.971 22.5491 116.831 32.6769L113.562 48.1444C112.492 53.1357 113.476 57.8079 116.31 61.2902C119.058 64.6855 123.223 66.5428 128.025 66.5428H161.926L163.951 57.0534H129.963C127.649 57.0534 125.653 56.1538 124.352 54.5287C122.992 52.8455 122.529 50.611 123.05 48.2024L123.686 45.1844H162.881C164.847 45.1844 166.583 43.7914 166.988 41.8471L168.926 32.735C169.996 27.7436 169.013 23.0714 166.178 19.5891" fill="#EE3224"/>
<path d="M215.409 32.6769L214.773 35.6949H181.653L182.289 32.764C183.331 27.8307 188.161 23.826 193.079 23.826H208.496C210.81 23.826 212.806 24.7256 214.108 26.3507C215.467 28.0338 215.93 30.2683 215.409 32.6769ZM222.12 19.5891C219.372 16.1938 215.207 14.3365 210.405 14.3365H194.988C184.893 14.3365 174.971 22.5491 172.831 32.6769L169.562 48.1444C168.492 53.1357 169.475 57.8079 172.31 61.2902C175.058 64.6855 179.223 66.5428 184.025 66.5428H217.926L219.951 57.0534H185.963C183.649 57.0534 181.653 56.1538 180.351 54.5287C178.992 52.8455 178.529 50.611 179.05 48.2024L179.686 45.1844H218.88C220.847 45.1844 222.554 43.7914 222.988 41.8471L224.926 32.735C225.996 27.7436 225.013 23.0714 222.178 19.5891" fill="#EE3224"/>
<path d="M305.31 23.855C300.364 23.855 295.475 27.8887 294.434 32.851L291.194 48.0863C290.153 53.0487 293.306 57.0824 298.252 57.0824H313.525C318.471 57.0824 323.331 53.0487 324.401 48.0863L327.64 32.851C328.682 27.8887 325.529 23.855 320.583 23.855H305.31ZM311.674 66.5718H296.112C286.016 66.5718 279.566 58.3303 281.706 48.2314L285.004 32.7059C287.144 22.5782 297.095 14.3656 307.19 14.3656H322.752C332.847 14.3656 339.297 22.6072 337.157 32.7059L333.859 48.2314C331.719 58.3303 321.769 66.5718 311.674 66.5718Z" fill="#EE3224"/>
<path d="M65.111 57.0824H89.3796C94.268 57.0824 99.0697 53.1067 100.111 48.2024L103.38 32.735C104.421 27.8307 101.297 23.855 96.4085 23.855H80.9912C76.1027 23.855 71.3011 27.8307 70.2598 32.735L65.111 57.0824ZM60.1069 80.7624H50.6482L60.83 32.735C62.9705 22.6072 72.9498 14.3656 83.0449 14.3656H98.4622C108.557 14.3656 115.037 22.6072 112.896 32.735L109.628 48.2024C107.487 58.3303 97.5077 66.5718 87.4127 66.5718H68.4085C65.3424 66.5718 62.7102 68.7193 62.0738 71.7083L60.1647 80.7624H60.1069Z" fill="#EE3224"/>
<path d="M248.992 23.855C244.104 23.855 239.302 27.8307 238.261 32.735L234.992 48.2025C233.951 53.1068 237.075 57.0825 241.963 57.0825H257.381C262.269 57.0825 267.071 53.1068 268.112 48.2025L273.261 23.855H248.992ZM255.356 66.5719H239.939C229.844 66.5719 223.364 58.3303 225.505 48.2025L228.773 32.735C230.914 22.6072 240.893 14.3656 250.988 14.3656H269.992C273.058 14.3656 275.691 12.2181 276.327 9.20011L278.236 0.145996H287.695L277.513 48.1735C275.373 58.3013 265.393 66.5429 255.298 66.5429" fill="#EE3224"/>
<path d="M159.409 32.6769L158.773 35.6949H125.653L126.29 32.764C127.331 27.8307 132.162 23.826 137.079 23.826H152.496C154.81 23.826 156.806 24.7256 158.108 26.3507C159.467 28.0338 159.93 30.2683 159.409 32.6769ZM166.12 19.5891C163.372 16.1938 159.207 14.3365 154.405 14.3365H138.988C128.893 14.3365 118.971 22.5491 116.831 32.6769L113.562 48.1444C112.492 53.1357 113.476 57.8079 116.31 61.2902C119.058 64.6855 123.223 66.5428 128.025 66.5428H161.926L163.951 57.0534H129.963C127.649 57.0534 125.653 56.1538 124.352 54.5287C122.992 52.8455 122.529 50.611 123.05 48.2024L123.686 45.1844H162.881C164.847 45.1844 166.583 43.7914 166.988 41.8471L168.926 32.735C169.996 27.7436 169.013 23.0714 166.178 19.5891" fill="#EE3224"/>
<path d="M215.409 32.6769L214.773 35.6949H181.653L182.289 32.764C183.331 27.8307 188.161 23.826 193.079 23.826H208.496C210.81 23.826 212.806 24.7256 214.108 26.3507C215.467 28.0338 215.93 30.2683 215.409 32.6769ZM222.12 19.5891C219.372 16.1938 215.207 14.3365 210.405 14.3365H194.988C184.893 14.3365 174.971 22.5491 172.831 32.6769L169.562 48.1444C168.492 53.1357 169.475 57.8079 172.31 61.2902C175.058 64.6855 179.223 66.5428 184.025 66.5428H217.926L219.951 57.0534H185.963C183.649 57.0534 181.653 56.1538 180.351 54.5287C178.992 52.8455 178.529 50.611 179.05 48.2024L179.686 45.1844H218.88C220.847 45.1844 222.554 43.7914 222.988 41.8471L224.926 32.735C225.996 27.7436 225.013 23.0714 222.178 19.5891" fill="#EE3224"/>
<path d="M305.31 23.855C300.364 23.855 295.475 27.8887 294.434 32.851L291.194 48.0863C290.153 53.0487 293.306 57.0824 298.252 57.0824H313.525C318.471 57.0824 323.331 53.0487 324.401 48.0863L327.64 32.851C328.682 27.8887 325.529 23.855 320.583 23.855H305.31ZM311.674 66.5718H296.112C286.016 66.5718 279.566 58.3303 281.706 48.2314L285.004 32.7059C287.144 22.5782 297.095 14.3656 307.19 14.3656H322.752C332.847 14.3656 339.297 22.6072 337.157 32.7059L333.859 48.2314C331.719 58.3303 321.769 66.5718 311.674 66.5718Z" fill="#EE3224"/>
<path d="M55.9715 140.485L142.951 95.9688C143.645 95.6205 143.558 94.5758 142.748 94.3437L90.7112 81.3139C88.5418 80.7335 88.9757 78.3248 90.7112 78.3248H238.058C243.438 78.3248 245.55 84.1578 238.058 86.5954L56.6079 145.447C53.5707 146.434 50.8228 143.068 55.9426 140.456" fill="#EE3224"/>
<path d="M344.302 5.65969C344.822 5.65969 345.169 5.3695 345.169 4.87616C345.169 4.38283 344.851 4.12166 344.302 4.12166H342.797V5.65969H344.302ZM341.525 2.87382H344.388C345.632 2.87382 346.442 3.68636 346.442 4.87616C346.442 5.71773 346.037 6.4142 345.314 6.7044L346.529 9.22911H345.112L344.012 6.87852H342.797V9.22911H341.525V2.87382ZM348.496 6.06597C348.554 3.48322 346.326 1.21971 343.723 1.27775C341.149 1.21971 338.921 3.48322 338.979 6.06597C338.921 8.64871 341.149 10.9122 343.723 10.8542C346.326 10.9122 348.554 8.61969 348.496 6.06597ZM349.769 6.06597C349.826 9.34518 346.992 12.1891 343.723 12.1311C340.454 12.1891 337.62 9.34518 337.678 6.06597C337.62 2.78677 340.454 -0.0571573 343.723 0.000881848C346.992 -0.0571573 349.826 2.75775 349.769 6.06597Z" fill="#EE3224"/>
</svg>
