<svg width="341" height="136" viewBox="0 0 341 136" fill="none" xmlns="http://www.w3.org/2000/svg">
<path d="M77.1647 62.0805C77.8824 62.0805 78.6 62.0805 79.3177 62.1404C81.4706 62.2003 83.6236 62.2602 85.8363 62.38C84.1618 61.6012 82.5471 60.523 81.2314 59.265C80.0353 60.4032 78.6598 61.3616 77.1647 62.0805Z" fill="#0E1840"/>
<path d="M0.0774536 0.560059V65.1954C0.0774536 65.1954 4.68236 64.4766 14.1912 63.6979V46.5057H24.0588C26.6902 46.5057 27.2882 45.6671 27.2882 44.5289C27.2882 40.3357 14.4304 40.3357 14.4304 25.7792C14.4304 17.0334 20.8892 11.8817 27.2882 11.8817H44.2726V28.5947H34.6441C33.9863 28.5947 33.149 29.1937 33.149 30.0324C33.149 33.8062 45.5284 34.9444 45.5284 49.5608C45.5284 55.6709 43.1961 60.1037 38.8902 62.3201C44.8706 62.1404 51.5686 62.0206 59.0441 61.9607C53.9608 59.325 50.552 54.4129 50.552 48.3627V11.7619H66.9382V44.0497C66.9382 48.782 68.1941 49.8603 69.8686 49.8603C71.6029 49.8603 72.9186 48.7221 72.9186 44.0497V11.7619H89.3049V44.0497C89.3049 48.782 90.6206 49.8603 92.3549 49.8603C94.0892 49.8603 95.2853 48.7221 95.2853 44.0497V11.7619H111.672V48.4226C111.672 55.9105 106.469 61.6013 99.4118 63.5182C149.826 68.9094 208.674 88.318 251.194 88.318C299.516 88.318 340.123 73.3423 340.123 73.3423V0.560059H0.0774536Z" fill="#0E1840"/>
<path d="M111.851 48.4226V11.762H95.4647V44.0497C95.4647 48.782 94.2088 49.8603 92.5343 49.8603C90.8 49.8603 89.4843 48.7221 89.4843 44.0497V11.762H73.098V44.0497C73.098 48.782 71.7824 49.8603 70.048 49.8603C68.3137 49.8603 67.1177 48.7221 67.1177 44.0497V11.762H50.7314V48.4226C50.7314 54.4728 54.1402 59.325 59.2235 62.0206C64.8451 62.0206 70.8853 62.0206 77.2843 62.1404C78.7794 61.3617 80.1549 60.4631 81.351 59.2651C82.6667 60.583 84.2814 61.6013 85.9559 62.38C90.4412 62.6197 95.0461 62.9791 99.651 63.4583C106.648 61.5414 111.851 55.8506 111.851 48.4226Z" fill="white"/>
<path d="M45.5882 49.5607C45.5882 34.9444 33.2088 33.8062 33.2088 30.0323C33.2088 29.1937 34.0461 28.5947 34.7039 28.5947H44.2127V11.8817H27.2284C20.8294 11.8817 14.3706 16.9735 14.3706 25.7792C14.3706 40.3956 27.2284 40.3956 27.2284 44.5289C27.2284 45.667 26.6304 46.5057 23.999 46.5057H14.1313V63.6379C20.2912 63.1587 28.5441 62.6196 38.95 62.3201C43.2559 60.1037 45.5882 55.6708 45.5882 49.5607Z" fill="white"/>
<path d="M10.4235 119.527H2.88824V127.315H10.4235V124.679L13.2343 125.278V126.716C13.2343 127.854 13.0549 128.633 12.6363 128.992C12.2177 129.411 11.4402 129.591 10.2441 129.591H3.06765C1.87157 129.591 1.09412 129.411 0.675493 128.992C0.256865 128.573 0.0774536 127.794 0.0774536 126.716V120.246C0.0774536 119.108 0.256865 118.389 0.675493 117.97C1.09412 117.551 1.87157 117.371 3.06765 117.371H10.2441C11.3804 117.371 12.2177 117.551 12.6363 117.97C13.0549 118.389 13.2343 119.168 13.2343 120.246V121.384L10.4235 121.864V119.527Z" fill="#0E1840"/>
<path d="M51.15 124.739H56.4127L53.8412 119.707L51.15 124.739ZM45.7676 129.651L52.5853 117.371H55.2765L62.1539 129.651H59.0441L57.6088 126.955H49.9539L48.5784 129.651H45.7676Z" fill="#0E1840"/>
<path d="M106.05 119.468H99.7108V122.882H105.99C106.469 122.882 106.827 122.822 107.007 122.642C107.186 122.523 107.246 122.223 107.246 121.864V120.366C107.246 120.007 107.186 119.767 107.007 119.587C106.827 119.527 106.528 119.468 106.05 119.468ZM96.9598 129.651V117.371H107.246C108.203 117.371 108.921 117.551 109.339 117.91C109.758 118.27 109.997 118.869 109.997 119.707V122.583C109.997 123.421 109.758 124.02 109.339 124.38C108.921 124.739 108.203 124.979 107.246 124.979H105.691L111.253 129.651H107.246L102.402 124.979H99.7108V129.651H96.9598V129.651Z" fill="#0E1840"/>
<path d="M148.331 120.246C148.331 119.108 148.511 118.389 148.929 117.97C149.348 117.551 150.125 117.371 151.322 117.371H160.173C161.369 117.371 162.146 117.551 162.565 117.97C162.983 118.389 163.163 119.168 163.163 120.246V126.716C163.163 127.854 162.983 128.633 162.565 128.992C162.146 129.411 161.369 129.591 160.173 129.591H151.322C150.125 129.591 149.348 129.411 148.929 128.992C148.511 128.573 148.331 127.794 148.331 126.716V120.246ZM151.142 127.315H160.352V119.527H151.142V127.315Z" fill="#0E1840"/>
<path d="M197.969 129.651V117.371H200.779V127.315H209.81V129.651H197.969Z" fill="#0E1840"/>
<path d="M244.616 129.651V117.371H247.426V129.651H244.616Z" fill="#0E1840"/>
<path d="M282.232 129.651V117.371H284.146L292.638 124.619C292.937 124.859 293.176 125.098 293.416 125.278C293.655 125.518 293.834 125.697 294.014 125.937C293.954 125.218 293.954 124.739 293.954 124.499C293.954 124.2 293.954 124.02 293.954 123.84V117.371H296.466V129.651H294.552L285.701 122.043C285.462 121.864 285.282 121.684 285.163 121.504C284.983 121.325 284.864 121.205 284.744 121.025C284.804 121.384 284.804 121.744 284.804 122.103C284.804 122.463 284.804 122.702 284.804 123.002V129.651H282.232Z" fill="#0E1840"/>
<path d="M329.298 124.739H334.561L331.989 119.707L329.298 124.739ZM323.916 129.651L330.733 117.371H333.424L340.302 129.651H337.132L335.697 126.955H328.042L326.667 129.651H323.916Z" fill="#0E1840"/>
<path d="M340.242 84.4841V97.7826C340.242 97.7826 285.88 107.966 236.901 102.575C187.922 97.1836 140.258 83.5856 93.252 83.2861C46.2461 82.9866 1.15393 90.3546 1.15393 90.3546V78.7933C1.15393 78.7933 54.6186 72.3238 101.684 76.8165C148.75 81.3093 197.67 94.2483 242.762 94.7276C296.167 95.2068 340.242 84.4841 340.242 84.4841Z" fill="#F27024"/>
<path fill-rule="evenodd" clip-rule="evenodd" d="M286.179 51.8969V63.9374H302.087V59.5046C309.563 65.7944 321.165 65.8543 325.71 64.1172V46.3859C323.497 48.2428 311.237 52.0167 310.4 39.0777C310.878 29.3135 320.866 29.6729 325.71 32.3685V13.9783C320.666 10.8757 306.585 12.2411 300.114 21.4662C297.243 15.2363 289.887 12.0015 282.531 12.2411C278.106 12.3609 273.68 13.7387 270.212 16.4343C270.212 16.4343 270.152 16.4343 270.152 16.3744C264.65 11.5223 252.091 9.66528 245.931 17.0933C235.824 5.11264 213.757 14.8768 212.381 27.5763V63.8176H228.947V32.6081C229.605 31.1106 231.459 30.0922 233.313 30.0922C235.167 30.0922 237.021 31.0507 237.619 32.4883V63.7577H253.825V32.5482C254.184 31.2304 256.576 30.0922 258.311 30.0922C260.105 30.0922 262.198 31.4101 262.557 32.6081V63.8775H278.524V51.8969H286.179ZM282.531 30.8111C284.146 30.8111 285.701 31.47 286.239 32.6681V37.9395H278.883V32.6081C279.362 31.3502 280.976 30.7512 282.531 30.8111Z" fill="white"/>
<path fill-rule="evenodd" clip-rule="evenodd" d="M160.651 64.0572H177.037V31.8893C177.037 27.2168 178.353 26.0787 180.087 26.0787C181.822 26.0787 183.018 27.2168 183.018 31.8893V64.0572H199.404V27.5163C199.404 18.2913 191.45 11.7618 181.762 11.7618C176.918 11.7618 172.133 13.4391 168.784 16.6739C165.435 13.4391 160.651 11.7618 155.807 11.7618C146.119 11.7618 138.165 18.2913 138.165 27.5163V64.0572H154.551V31.8893C154.551 27.2168 155.807 26.0787 157.481 26.0787C159.216 26.0787 160.531 27.2168 160.531 31.8893V64.0572H160.651Z" fill="white"/>
<path fill-rule="evenodd" clip-rule="evenodd" d="M116.875 64.0572H133.261V11.7618H116.875V64.0572Z" fill="white"/>
</svg>
